<svg width="46" height="51" viewBox="0 0 46 51" fill="none" xmlns="http://www.w3.org/2000/svg">
<path d="M31.5391 20.6661L22.6855 31.6945C21.7072 32.9133 19.8875 33.0125 18.7824 31.9074L15.125 28.25M23 49.25C24.8556 49.25 43.889 40.6221 44 11.1752C44 10.9968 43.915 10.8286 43.7722 10.7261C35.0217 4.6413 23.9489 2 23 2C22.0511 2 10.9783 4.64141 2.22772 10.7261C2.08516 10.8286 2 10.9968 2 11.1752C2.11088 40.6227 21.1446 49.25 23 49.25Z" stroke="black" stroke-width="3.28125" stroke-linecap="round"/>
<path d="M31.5391 20.6661L22.6855 31.6945C21.7072 32.9133 19.8875 33.0125 18.7824 31.9074L15.125 28.25M23 49.25C24.8556 49.25 43.889 40.6221 44 11.1752C44 10.9968 43.915 10.8286 43.7722 10.7261C35.0217 4.6413 23.9489 2 23 2C22.0511 2 10.9783 4.64141 2.22772 10.7261C2.08516 10.8286 2 10.9968 2 11.1752C2.11088 40.6227 21.1446 49.25 23 49.25Z" stroke="url(#paint0_linear_247_17)" stroke-width="3.28125" stroke-linecap="round"/>
<path d="M31.5391 20.6661L22.6855 31.6945C21.7072 32.9133 19.8875 33.0125 18.7824 31.9074L15.125 28.25M23 49.25C24.8556 49.25 43.889 40.6221 44 11.1752C44 10.9968 43.915 10.8286 43.7722 10.7261C35.0217 4.6413 23.9489 2 23 2C22.0511 2 10.9783 4.64141 2.22772 10.7261C2.08516 10.8286 2 10.9968 2 11.1752C2.11088 40.6227 21.1446 49.25 23 49.25Z" stroke="url(#paint1_linear_247_17)" stroke-width="3.28125" stroke-linecap="round"/>
<path d="M31.5391 20.6661L22.6855 31.6945C21.7072 32.9133 19.8875 33.0125 18.7824 31.9074L15.125 28.25M23 49.25C24.8556 49.25 43.889 40.6221 44 11.1752C44 10.9968 43.915 10.8286 43.7722 10.7261C35.0217 4.6413 23.9489 2 23 2C22.0511 2 10.9783 4.64141 2.22772 10.7261C2.08516 10.8286 2 10.9968 2 11.1752C2.11088 40.6227 21.1446 49.25 23 49.25Z" stroke="#5A4D47" stroke-width="3.28125" stroke-linecap="round"/>
<defs>
<linearGradient id="paint0_linear_247_17" x1="23" y1="2" x2="23" y2="49.25" gradientUnits="userSpaceOnUse">
<stop stop-color="#5A4D47"/>
<stop offset="1" stop-color="#D8BFB4"/>
</linearGradient>
<linearGradient id="paint1_linear_247_17" x1="23" y1="2" x2="23" y2="49.25" gradientUnits="userSpaceOnUse">
<stop stop-color="#FEA700"/>
<stop offset="1" stop-color="#F7E651"/>
</linearGradient>
</defs>
</svg>
