<svg width="54" height="45" viewBox="0 0 54 45" fill="none" xmlns="http://www.w3.org/2000/svg">
<path d="M7.25 20.375H46.625M7.25 20.375C4.3505 20.375 2 22.7254 2 25.625V36.125H5.11719M7.25 20.375L12.1188 5.60625C12.8283 3.45404 14.8387 2 17.1049 2H36.7702C39.0364 2 41.0466 3.45404 41.7562 5.60625L46.625 20.375M46.625 20.375C49.5246 20.375 51.875 22.7254 51.875 25.625V36.125H48.7578M5.11719 36.125V40.3087C5.11719 41.6225 6.18226 42.6875 7.49609 42.6875C8.80993 42.6875 9.875 41.6225 9.875 40.3087V36.125M5.11719 36.125H9.875M48.7578 36.125V40.3087C48.7578 41.6225 47.6929 42.6875 46.3788 42.6875C45.065 42.6875 44 41.6225 44 40.3087V36.125M48.7578 36.125H44M44 36.125H9.875M13.8125 28.25C13.8125 28.9748 13.2249 29.5625 12.5 29.5625C11.7751 29.5625 11.1875 28.9748 11.1875 28.25C11.1875 27.5252 11.7751 26.9375 12.5 26.9375C13.2249 26.9375 13.8125 27.5252 13.8125 28.25ZM42.6875 28.25C42.6875 28.9748 42.0998 29.5625 41.375 29.5625C40.6502 29.5625 40.0625 28.9748 40.0625 28.25C40.0625 27.5252 40.6502 26.9375 41.375 26.9375C42.0998 26.9375 42.6875 27.5252 42.6875 28.25Z" stroke="#5A4D47" stroke-width="3.28125" stroke-linecap="round"/>
<path d="M7.25 20.375H46.625M7.25 20.375C4.3505 20.375 2 22.7254 2 25.625V36.125H5.11719M7.25 20.375L12.1188 5.60625C12.8283 3.45404 14.8387 2 17.1049 2H36.7702C39.0364 2 41.0466 3.45404 41.7562 5.60625L46.625 20.375M46.625 20.375C49.5246 20.375 51.875 22.7254 51.875 25.625V36.125H48.7578M5.11719 36.125V40.3087C5.11719 41.6225 6.18226 42.6875 7.49609 42.6875C8.80993 42.6875 9.875 41.6225 9.875 40.3087V36.125M5.11719 36.125H9.875M48.7578 36.125V40.3087C48.7578 41.6225 47.6929 42.6875 46.3788 42.6875C45.065 42.6875 44 41.6225 44 40.3087V36.125M48.7578 36.125H44M44 36.125H9.875M13.8125 28.25C13.8125 28.9748 13.2249 29.5625 12.5 29.5625C11.7751 29.5625 11.1875 28.9748 11.1875 28.25C11.1875 27.5252 11.7751 26.9375 12.5 26.9375C13.2249 26.9375 13.8125 27.5252 13.8125 28.25ZM42.6875 28.25C42.6875 28.9748 42.0998 29.5625 41.375 29.5625C40.6502 29.5625 40.0625 28.9748 40.0625 28.25C40.0625 27.5252 40.6502 26.9375 41.375 26.9375C42.0998 26.9375 42.6875 27.5252 42.6875 28.25Z" stroke="url(#paint0_linear_247_19)" stroke-width="3.28125" stroke-linecap="round"/>
<path d="M7.25 20.375H46.625M7.25 20.375C4.3505 20.375 2 22.7254 2 25.625V36.125H5.11719M7.25 20.375L12.1188 5.60625C12.8283 3.45404 14.8387 2 17.1049 2H36.7702C39.0364 2 41.0466 3.45404 41.7562 5.60625L46.625 20.375M46.625 20.375C49.5246 20.375 51.875 22.7254 51.875 25.625V36.125H48.7578M5.11719 36.125V40.3087C5.11719 41.6225 6.18226 42.6875 7.49609 42.6875C8.80993 42.6875 9.875 41.6225 9.875 40.3087V36.125M5.11719 36.125H9.875M48.7578 36.125V40.3087C48.7578 41.6225 47.6929 42.6875 46.3788 42.6875C45.065 42.6875 44 41.6225 44 40.3087V36.125M48.7578 36.125H44M44 36.125H9.875M13.8125 28.25C13.8125 28.9748 13.2249 29.5625 12.5 29.5625C11.7751 29.5625 11.1875 28.9748 11.1875 28.25C11.1875 27.5252 11.7751 26.9375 12.5 26.9375C13.2249 26.9375 13.8125 27.5252 13.8125 28.25ZM42.6875 28.25C42.6875 28.9748 42.0998 29.5625 41.375 29.5625C40.6502 29.5625 40.0625 28.9748 40.0625 28.25C40.0625 27.5252 40.6502 26.9375 41.375 26.9375C42.0998 26.9375 42.6875 27.5252 42.6875 28.25Z" stroke="#5A4D47" stroke-width="3.28125" stroke-linecap="round"/>
<defs>
<linearGradient id="paint0_linear_247_19" x1="26.9375" y1="2" x2="26.9375" y2="42.6875" gradientUnits="userSpaceOnUse">
<stop stop-color="#FEA700"/>
<stop offset="1" stop-color="#F7E651"/>
</linearGradient>
</defs>
</svg>
