<svg width="51" height="36" viewBox="0 0 51 36" fill="none" xmlns="http://www.w3.org/2000/svg">
<path d="M2 8.5625H49.25M2 13.8125H49.25M8.5625 21.6875H26.9375M8.5625 26.9375H19.0625M7.25 2H44C46.8996 2 49.25 4.3505 49.25 7.25V28.25C49.25 31.1496 46.8996 33.5 44 33.5H7.25C4.3505 33.5 2 31.1496 2 28.25V7.25C2 4.3505 4.3505 2 7.25 2ZM42.6875 25.625C42.6875 26.3498 42.0998 26.9375 41.375 26.9375C40.6502 26.9375 40.0625 26.3498 40.0625 25.625C40.0625 24.9002 40.6502 24.3125 41.375 24.3125C42.0998 24.3125 42.6875 24.9002 42.6875 25.625Z" stroke="black" stroke-width="3.28125" stroke-linecap="round"/>
<path d="M2 8.5625H49.25M2 13.8125H49.25M8.5625 21.6875H26.9375M8.5625 26.9375H19.0625M7.25 2H44C46.8996 2 49.25 4.3505 49.25 7.25V28.25C49.25 31.1496 46.8996 33.5 44 33.5H7.25C4.3505 33.5 2 31.1496 2 28.25V7.25C2 4.3505 4.3505 2 7.25 2ZM42.6875 25.625C42.6875 26.3498 42.0998 26.9375 41.375 26.9375C40.6502 26.9375 40.0625 26.3498 40.0625 25.625C40.0625 24.9002 40.6502 24.3125 41.375 24.3125C42.0998 24.3125 42.6875 24.9002 42.6875 25.625Z" stroke="url(#paint0_linear_247_14)" stroke-width="3.28125" stroke-linecap="round"/>
<path d="M2 8.5625H49.25M2 13.8125H49.25M8.5625 21.6875H26.9375M8.5625 26.9375H19.0625M7.25 2H44C46.8996 2 49.25 4.3505 49.25 7.25V28.25C49.25 31.1496 46.8996 33.5 44 33.5H7.25C4.3505 33.5 2 31.1496 2 28.25V7.25C2 4.3505 4.3505 2 7.25 2ZM42.6875 25.625C42.6875 26.3498 42.0998 26.9375 41.375 26.9375C40.6502 26.9375 40.0625 26.3498 40.0625 25.625C40.0625 24.9002 40.6502 24.3125 41.375 24.3125C42.0998 24.3125 42.6875 24.9002 42.6875 25.625Z" stroke="url(#paint1_linear_247_14)" stroke-width="3.28125" stroke-linecap="round"/>
<path d="M2 8.5625H49.25M2 13.8125H49.25M8.5625 21.6875H26.9375M8.5625 26.9375H19.0625M7.25 2H44C46.8996 2 49.25 4.3505 49.25 7.25V28.25C49.25 31.1496 46.8996 33.5 44 33.5H7.25C4.3505 33.5 2 31.1496 2 28.25V7.25C2 4.3505 4.3505 2 7.25 2ZM42.6875 25.625C42.6875 26.3498 42.0998 26.9375 41.375 26.9375C40.6502 26.9375 40.0625 26.3498 40.0625 25.625C40.0625 24.9002 40.6502 24.3125 41.375 24.3125C42.0998 24.3125 42.6875 24.9002 42.6875 25.625Z" stroke="#5A4D47" stroke-width="3.28125" stroke-linecap="round"/>
<defs>
<linearGradient id="paint0_linear_247_14" x1="25.625" y1="2" x2="25.625" y2="33.5" gradientUnits="userSpaceOnUse">
<stop stop-color="#5A4D47"/>
<stop offset="1" stop-color="#D8BFB4"/>
</linearGradient>
<linearGradient id="paint1_linear_247_14" x1="25.625" y1="2" x2="25.625" y2="33.5" gradientUnits="userSpaceOnUse">
<stop stop-color="#FEA700"/>
<stop offset="1" stop-color="#F7E651"/>
</linearGradient>
</defs>
</svg>
