<svg width="54" height="44" viewBox="0 0 54 44" fill="none" xmlns="http://www.w3.org/2000/svg">
<path d="M51.875 9.875C51.875 14.2242 40.7101 17.75 26.9375 17.75M51.875 9.875C51.875 5.52577 40.7101 2 26.9375 2C13.1649 2 2 5.52577 2 9.875M51.875 9.875V17.75M26.9375 17.75C13.1649 17.75 2 14.2242 2 9.875M26.9375 17.75V25.625M2 9.875V17.75M51.875 17.75C51.875 22.0994 40.7101 25.625 26.9375 25.625M51.875 17.75V25.625M26.9375 25.625C13.1649 25.625 2 22.0994 2 17.75M2 17.75V25.625M5.9375 15.125V21.6875M15.125 17.75V24.3125M38.75 17.75V24.3125M47.9375 15.125V21.6875M8.5625 23V29.5625M17.75 25.625V32.1875M29.5625 25.625V33.5M41.375 25.625V32.1875M50.5625 21.6875V28.25M5.9375 30.875V37.4375M15.125 33.5V40.0625M26.9375 33.5V41.375M26.9375 33.5C40.7101 33.5 51.875 29.9744 51.875 25.625M26.9375 33.5C13.1649 33.5 2 29.9744 2 25.625M26.9375 41.375C40.7101 41.375 51.875 37.8494 51.875 33.5V25.625M26.9375 41.375C13.1649 41.375 2 37.8494 2 33.5V25.625M38.75 33.5V40.0625M47.9375 30.875V37.4375" stroke="black" stroke-width="3.28125" stroke-linecap="round"/>
<path d="M51.875 9.875C51.875 14.2242 40.7101 17.75 26.9375 17.75M51.875 9.875C51.875 5.52577 40.7101 2 26.9375 2C13.1649 2 2 5.52577 2 9.875M51.875 9.875V17.75M26.9375 17.75C13.1649 17.75 2 14.2242 2 9.875M26.9375 17.75V25.625M2 9.875V17.75M51.875 17.75C51.875 22.0994 40.7101 25.625 26.9375 25.625M51.875 17.75V25.625M26.9375 25.625C13.1649 25.625 2 22.0994 2 17.75M2 17.75V25.625M5.9375 15.125V21.6875M15.125 17.75V24.3125M38.75 17.75V24.3125M47.9375 15.125V21.6875M8.5625 23V29.5625M17.75 25.625V32.1875M29.5625 25.625V33.5M41.375 25.625V32.1875M50.5625 21.6875V28.25M5.9375 30.875V37.4375M15.125 33.5V40.0625M26.9375 33.5V41.375M26.9375 33.5C40.7101 33.5 51.875 29.9744 51.875 25.625M26.9375 33.5C13.1649 33.5 2 29.9744 2 25.625M26.9375 41.375C40.7101 41.375 51.875 37.8494 51.875 33.5V25.625M26.9375 41.375C13.1649 41.375 2 37.8494 2 33.5V25.625M38.75 33.5V40.0625M47.9375 30.875V37.4375" stroke="url(#paint0_linear_247_16)" stroke-width="3.28125" stroke-linecap="round"/>
<path d="M51.875 9.875C51.875 14.2242 40.7101 17.75 26.9375 17.75M51.875 9.875C51.875 5.52577 40.7101 2 26.9375 2C13.1649 2 2 5.52577 2 9.875M51.875 9.875V17.75M26.9375 17.75C13.1649 17.75 2 14.2242 2 9.875M26.9375 17.75V25.625M2 9.875V17.75M51.875 17.75C51.875 22.0994 40.7101 25.625 26.9375 25.625M51.875 17.75V25.625M26.9375 25.625C13.1649 25.625 2 22.0994 2 17.75M2 17.75V25.625M5.9375 15.125V21.6875M15.125 17.75V24.3125M38.75 17.75V24.3125M47.9375 15.125V21.6875M8.5625 23V29.5625M17.75 25.625V32.1875M29.5625 25.625V33.5M41.375 25.625V32.1875M50.5625 21.6875V28.25M5.9375 30.875V37.4375M15.125 33.5V40.0625M26.9375 33.5V41.375M26.9375 33.5C40.7101 33.5 51.875 29.9744 51.875 25.625M26.9375 33.5C13.1649 33.5 2 29.9744 2 25.625M26.9375 41.375C40.7101 41.375 51.875 37.8494 51.875 33.5V25.625M26.9375 41.375C13.1649 41.375 2 37.8494 2 33.5V25.625M38.75 33.5V40.0625M47.9375 30.875V37.4375" stroke="url(#paint1_linear_247_16)" stroke-width="3.28125" stroke-linecap="round"/>
<path d="M51.875 9.875C51.875 14.2242 40.7101 17.75 26.9375 17.75M51.875 9.875C51.875 5.52577 40.7101 2 26.9375 2C13.1649 2 2 5.52577 2 9.875M51.875 9.875V17.75M26.9375 17.75C13.1649 17.75 2 14.2242 2 9.875M26.9375 17.75V25.625M2 9.875V17.75M51.875 17.75C51.875 22.0994 40.7101 25.625 26.9375 25.625M51.875 17.75V25.625M26.9375 25.625C13.1649 25.625 2 22.0994 2 17.75M2 17.75V25.625M5.9375 15.125V21.6875M15.125 17.75V24.3125M38.75 17.75V24.3125M47.9375 15.125V21.6875M8.5625 23V29.5625M17.75 25.625V32.1875M29.5625 25.625V33.5M41.375 25.625V32.1875M50.5625 21.6875V28.25M5.9375 30.875V37.4375M15.125 33.5V40.0625M26.9375 33.5V41.375M26.9375 33.5C40.7101 33.5 51.875 29.9744 51.875 25.625M26.9375 33.5C13.1649 33.5 2 29.9744 2 25.625M26.9375 41.375C40.7101 41.375 51.875 37.8494 51.875 33.5V25.625M26.9375 41.375C13.1649 41.375 2 37.8494 2 33.5V25.625M38.75 33.5V40.0625M47.9375 30.875V37.4375" stroke="#5A4D47" stroke-width="3.28125" stroke-linecap="round"/>
<defs>
<linearGradient id="paint0_linear_247_16" x1="26.9375" y1="2" x2="26.9375" y2="41.375" gradientUnits="userSpaceOnUse">
<stop stop-color="#5A4D47"/>
<stop offset="1" stop-color="#D8BFB4"/>
</linearGradient>
<linearGradient id="paint1_linear_247_16" x1="26.9375" y1="2" x2="26.9375" y2="41.375" gradientUnits="userSpaceOnUse">
<stop stop-color="#FEA700"/>
<stop offset="1" stop-color="#F7E651"/>
</linearGradient>
</defs>
</svg>
