<svg width="47" height="42" viewBox="0 0 47 42" fill="none" xmlns="http://www.w3.org/2000/svg">
<path d="M2 7.9375V35.25C2 37.8734 4.12665 40 6.75 40H40C42.6234 40 44.75 37.8734 44.75 35.25V7.9375M2 7.9375V6.75C2 4.12665 4.12665 2 6.75 2H40C42.6234 2 44.75 4.12665 44.75 6.75V7.9375M2 7.9375H44.75M29.3125 24.5625H36.4375M29.3125 17.4375H38.8125M7.91123 29.5075C9.52431 26.5606 12.6538 24.5625 16.25 24.5625C19.8462 24.5625 22.9758 26.5606 24.5889 29.5075C25.8483 31.8086 23.6234 34.0625 21 34.0625H11.5C8.87665 34.0625 6.65156 31.8086 7.91123 29.5075ZM19.8125 17.4375C19.8125 19.405 18.2175 21 16.25 21C14.2825 21 12.6875 19.405 12.6875 17.4375C12.6875 15.47 14.2825 13.875 16.25 13.875C18.2175 13.875 19.8125 15.47 19.8125 17.4375Z" stroke="url(#paint0_linear_256_41)" stroke-width="2.96875" stroke-linecap="round"/>
<path d="M2 7.9375V35.25C2 37.8734 4.12665 40 6.75 40H40C42.6234 40 44.75 37.8734 44.75 35.25V7.9375M2 7.9375V6.75C2 4.12665 4.12665 2 6.75 2H40C42.6234 2 44.75 4.12665 44.75 6.75V7.9375M2 7.9375H44.75M29.3125 24.5625H36.4375M29.3125 17.4375H38.8125M7.91123 29.5075C9.52431 26.5606 12.6538 24.5625 16.25 24.5625C19.8462 24.5625 22.9758 26.5606 24.5889 29.5075C25.8483 31.8086 23.6234 34.0625 21 34.0625H11.5C8.87665 34.0625 6.65156 31.8086 7.91123 29.5075ZM19.8125 17.4375C19.8125 19.405 18.2175 21 16.25 21C14.2825 21 12.6875 19.405 12.6875 17.4375C12.6875 15.47 14.2825 13.875 16.25 13.875C18.2175 13.875 19.8125 15.47 19.8125 17.4375Z" stroke="url(#paint1_linear_256_41)" stroke-width="2.96875" stroke-linecap="round"/>
<path d="M2 7.9375V35.25C2 37.8734 4.12665 40 6.75 40H40C42.6234 40 44.75 37.8734 44.75 35.25V7.9375M2 7.9375V6.75C2 4.12665 4.12665 2 6.75 2H40C42.6234 2 44.75 4.12665 44.75 6.75V7.9375M2 7.9375H44.75M29.3125 24.5625H36.4375M29.3125 17.4375H38.8125M7.91123 29.5075C9.52431 26.5606 12.6538 24.5625 16.25 24.5625C19.8462 24.5625 22.9758 26.5606 24.5889 29.5075C25.8483 31.8086 23.6234 34.0625 21 34.0625H11.5C8.87665 34.0625 6.65156 31.8086 7.91123 29.5075ZM19.8125 17.4375C19.8125 19.405 18.2175 21 16.25 21C14.2825 21 12.6875 19.405 12.6875 17.4375C12.6875 15.47 14.2825 13.875 16.25 13.875C18.2175 13.875 19.8125 15.47 19.8125 17.4375Z" stroke="#5A4D47" stroke-width="2.96875" stroke-linecap="round"/>
<defs>
<linearGradient id="paint0_linear_256_41" x1="23.375" y1="2" x2="23.375" y2="40" gradientUnits="userSpaceOnUse">
<stop stop-color="#5A4D47"/>
<stop offset="1" stop-color="#D8BFB4"/>
</linearGradient>
<linearGradient id="paint1_linear_256_41" x1="23.375" y1="2" x2="23.375" y2="40" gradientUnits="userSpaceOnUse">
<stop stop-color="#FEA700"/>
<stop offset="1" stop-color="#F7E651"/>
</linearGradient>
</defs>
</svg>
