<svg width="46" height="40" viewBox="0 0 46 40" fill="none" xmlns="http://www.w3.org/2000/svg">
<path d="M38.679 14.3941V28.1803C38.679 29.4584 38.0732 30.6609 37.0463 31.4216C29.4395 37.0562 19.0432 37.0562 11.4366 31.4216C10.4096 30.6609 9.8039 29.4584 9.8039 28.1803V15.3128M28.179 9.40657L42.071 13.6514C43.1748 13.9887 43.929 15.0075 43.929 16.1617V30.0317M43.929 34.8441V38.2815M25.5304 18.9962L42.0999 13.1967C44.4438 12.3764 44.4438 9.06178 42.0999 8.24146L25.5304 2.4421C23.8462 1.85263 22.0116 1.85263 20.3274 2.4421L3.75782 8.24146C1.41406 9.06178 1.41406 12.3764 3.75782 13.1967L20.3274 18.9962C22.0116 19.5855 23.8462 19.5855 25.5304 18.9962Z" stroke="black" stroke-width="3.28125" stroke-linecap="round"/>
<path d="M38.679 14.3941V28.1803C38.679 29.4584 38.0732 30.6609 37.0463 31.4216C29.4395 37.0562 19.0432 37.0562 11.4366 31.4216C10.4096 30.6609 9.8039 29.4584 9.8039 28.1803V15.3128M28.179 9.40657L42.071 13.6514C43.1748 13.9887 43.929 15.0075 43.929 16.1617V30.0317M43.929 34.8441V38.2815M25.5304 18.9962L42.0999 13.1967C44.4438 12.3764 44.4438 9.06178 42.0999 8.24146L25.5304 2.4421C23.8462 1.85263 22.0116 1.85263 20.3274 2.4421L3.75782 8.24146C1.41406 9.06178 1.41406 12.3764 3.75782 13.1967L20.3274 18.9962C22.0116 19.5855 23.8462 19.5855 25.5304 18.9962Z" stroke="url(#paint0_linear_247_18)" stroke-width="3.28125" stroke-linecap="round"/>
<path d="M38.679 14.3941V28.1803C38.679 29.4584 38.0732 30.6609 37.0463 31.4216C29.4395 37.0562 19.0432 37.0562 11.4366 31.4216C10.4096 30.6609 9.8039 29.4584 9.8039 28.1803V15.3128M28.179 9.40657L42.071 13.6514C43.1748 13.9887 43.929 15.0075 43.929 16.1617V30.0317M43.929 34.8441V38.2815M25.5304 18.9962L42.0999 13.1967C44.4438 12.3764 44.4438 9.06178 42.0999 8.24146L25.5304 2.4421C23.8462 1.85263 22.0116 1.85263 20.3274 2.4421L3.75782 8.24146C1.41406 9.06178 1.41406 12.3764 3.75782 13.1967L20.3274 18.9962C22.0116 19.5855 23.8462 19.5855 25.5304 18.9962Z" stroke="url(#paint1_linear_247_18)" stroke-width="3.28125" stroke-linecap="round"/>
<path d="M38.679 14.3941V28.1803C38.679 29.4584 38.0732 30.6609 37.0463 31.4216C29.4395 37.0562 19.0432 37.0562 11.4366 31.4216C10.4096 30.6609 9.8039 29.4584 9.8039 28.1803V15.3128M28.179 9.40657L42.071 13.6514C43.1748 13.9887 43.929 15.0075 43.929 16.1617V30.0317M43.929 34.8441V38.2815M25.5304 18.9962L42.0999 13.1967C44.4438 12.3764 44.4438 9.06178 42.0999 8.24146L25.5304 2.4421C23.8462 1.85263 22.0116 1.85263 20.3274 2.4421L3.75782 8.24146C1.41406 9.06178 1.41406 12.3764 3.75782 13.1967L20.3274 18.9962C22.0116 19.5855 23.8462 19.5855 25.5304 18.9962Z" stroke="#5A4D47" stroke-width="3.28125" stroke-linecap="round"/>
<defs>
<linearGradient id="paint0_linear_247_18" x1="22.9645" y1="2" x2="22.9645" y2="38.2815" gradientUnits="userSpaceOnUse">
<stop stop-color="#5A4D47"/>
<stop offset="1" stop-color="#D8BFB4"/>
</linearGradient>
<linearGradient id="paint1_linear_247_18" x1="22.9645" y1="2" x2="22.9645" y2="38.2815" gradientUnits="userSpaceOnUse">
<stop stop-color="#FEA700"/>
<stop offset="1" stop-color="#F7E651"/>
</linearGradient>
</defs>
</svg>
