<svg width="36" height="42" viewBox="0 0 36 42" fill="none" xmlns="http://www.w3.org/2000/svg">
<path d="M18 21L28.4484 15.1228C31.8778 13.1938 34 9.56504 34 5.63036C34 3.62538 32.3746 2 30.3696 2H5.63036C3.62538 2 2 3.62538 2 5.63036C2 9.56504 4.12226 13.1938 7.55162 15.1228L10 16.5M18 21L7.55162 26.8772C4.12226 28.8062 2 32.435 2 36.3696C2 38.3746 3.62538 40 5.63036 40H30.3696C32.3746 40 34 38.3746 34 36.3696C34 32.435 31.8778 28.8062 28.4484 26.8772L18 21Z" stroke="#5A4D47" stroke-width="2.5" stroke-linecap="round"/>
</svg>
