<svg width="51" height="52" viewBox="0 0 51 52" fill="none" xmlns="http://www.w3.org/2000/svg">
<path d="M44 18.2004V44.4504C44 47.3499 41.6496 49.7004 38.75 49.7004H12.5C9.6005 49.7004 7.25 47.3499 7.25 44.4504V18.2004M33.5 49.7004V36.5754C33.5 33.6758 31.1496 31.3254 28.25 31.3254H23C20.1005 31.3254 17.75 33.6758 17.75 36.5754V49.7004M49.25 23.4504L29.3373 3.53769C27.2871 1.48744 23.9629 1.48744 21.9127 3.53769L2 23.4504" stroke="black" stroke-width="3.28125" stroke-linecap="round"/>
<path d="M44 18.2004V44.4504C44 47.3499 41.6496 49.7004 38.75 49.7004H12.5C9.6005 49.7004 7.25 47.3499 7.25 44.4504V18.2004M33.5 49.7004V36.5754C33.5 33.6758 31.1496 31.3254 28.25 31.3254H23C20.1005 31.3254 17.75 33.6758 17.75 36.5754V49.7004M49.25 23.4504L29.3373 3.53769C27.2871 1.48744 23.9629 1.48744 21.9127 3.53769L2 23.4504" stroke="url(#paint0_linear_247_9)" stroke-width="3.28125" stroke-linecap="round"/>
<path d="M44 18.2004V44.4504C44 47.3499 41.6496 49.7004 38.75 49.7004H12.5C9.6005 49.7004 7.25 47.3499 7.25 44.4504V18.2004M33.5 49.7004V36.5754C33.5 33.6758 31.1496 31.3254 28.25 31.3254H23C20.1005 31.3254 17.75 33.6758 17.75 36.5754V49.7004M49.25 23.4504L29.3373 3.53769C27.2871 1.48744 23.9629 1.48744 21.9127 3.53769L2 23.4504" stroke="url(#paint1_linear_247_9)" stroke-width="3.28125" stroke-linecap="round"/>
<path d="M44 18.2004V44.4504C44 47.3499 41.6496 49.7004 38.75 49.7004H12.5C9.6005 49.7004 7.25 47.3499 7.25 44.4504V18.2004M33.5 49.7004V36.5754C33.5 33.6758 31.1496 31.3254 28.25 31.3254H23C20.1005 31.3254 17.75 33.6758 17.75 36.5754V49.7004M49.25 23.4504L29.3373 3.53769C27.2871 1.48744 23.9629 1.48744 21.9127 3.53769L2 23.4504" stroke="#5A4D47" stroke-width="3.28125" stroke-linecap="round"/>
<defs>
<linearGradient id="paint0_linear_247_9" x1="25.625" y1="2" x2="25.625" y2="49.7004" gradientUnits="userSpaceOnUse">
<stop stop-color="#5A4D47"/>
<stop offset="1" stop-color="#D8BFB4"/>
</linearGradient>
<linearGradient id="paint1_linear_247_9" x1="25.625" y1="2" x2="25.625" y2="49.7004" gradientUnits="userSpaceOnUse">
<stop stop-color="#FEA700"/>
<stop offset="1" stop-color="#F7E651"/>
</linearGradient>
</defs>
</svg>
