<svg width="49" height="49" viewBox="0 0 49 49" fill="none" xmlns="http://www.w3.org/2000/svg">
<path d="M19.8601 12.2978L10.9413 13.2677C9.00345 13.4784 7.34188 14.7454 6.62586 16.5584L3.88294 23.5037C2.98204 25.7848 5.42358 27.9457 7.57832 26.7739L14.1657 23.3908M36.2186 29.3603L35.2487 38.2793C35.0382 40.217 33.7711 41.8787 31.958 42.5945L25.0128 45.3374C22.7316 46.2385 20.571 43.7968 21.7425 41.6422L25.3929 34.8405M45.8518 3.11035C48.4768 5.7353 46.6645 17.8418 38.0797 26.4266C34.6709 29.8354 30.9697 32.4394 27.4768 34.0714C21.416 36.9035 23.3501 32.2853 20.0134 28.9487C16.6767 25.6118 12.0586 27.5464 14.8907 21.4853C16.5227 17.9926 19.1267 14.2913 22.5355 10.8824C31.1203 2.29762 43.2268 0.485377 45.8518 3.11035ZM13.1066 42.7194C11.3623 44.4638 3 46.5094 3 46.5094C3 46.5094 5.04569 38.147 6.78997 36.4029C8.53426 34.6586 11.3623 34.6586 13.1066 36.4029C14.8509 38.147 14.8509 40.9751 13.1066 42.7194ZM37.9771 13.6103C37.9771 15.0601 36.8019 16.2353 35.3521 16.2353C33.9026 16.2353 32.7271 15.0601 32.7271 13.6103C32.7271 12.1606 33.9026 10.9853 35.3521 10.9853C36.8019 10.9853 37.9771 12.1606 37.9771 13.6103Z" stroke="black" stroke-width="3.28125" stroke-linecap="round"/>
<path d="M19.8601 12.2978L10.9413 13.2677C9.00345 13.4784 7.34188 14.7454 6.62586 16.5584L3.88294 23.5037C2.98204 25.7848 5.42358 27.9457 7.57832 26.7739L14.1657 23.3908M36.2186 29.3603L35.2487 38.2793C35.0382 40.217 33.7711 41.8787 31.958 42.5945L25.0128 45.3374C22.7316 46.2385 20.571 43.7968 21.7425 41.6422L25.3929 34.8405M45.8518 3.11035C48.4768 5.7353 46.6645 17.8418 38.0797 26.4266C34.6709 29.8354 30.9697 32.4394 27.4768 34.0714C21.416 36.9035 23.3501 32.2853 20.0134 28.9487C16.6767 25.6118 12.0586 27.5464 14.8907 21.4853C16.5227 17.9926 19.1267 14.2913 22.5355 10.8824C31.1203 2.29762 43.2268 0.485377 45.8518 3.11035ZM13.1066 42.7194C11.3623 44.4638 3 46.5094 3 46.5094C3 46.5094 5.04569 38.147 6.78997 36.4029C8.53426 34.6586 11.3623 34.6586 13.1066 36.4029C14.8509 38.147 14.8509 40.9751 13.1066 42.7194ZM37.9771 13.6103C37.9771 15.0601 36.8019 16.2353 35.3521 16.2353C33.9026 16.2353 32.7271 15.0601 32.7271 13.6103C32.7271 12.1606 33.9026 10.9853 35.3521 10.9853C36.8019 10.9853 37.9771 12.1606 37.9771 13.6103Z" stroke="url(#paint0_linear_247_15)" stroke-width="3.28125" stroke-linecap="round"/>
<path d="M19.8601 12.2978L10.9413 13.2677C9.00345 13.4784 7.34188 14.7454 6.62586 16.5584L3.88294 23.5037C2.98204 25.7848 5.42358 27.9457 7.57832 26.7739L14.1657 23.3908M36.2186 29.3603L35.2487 38.2793C35.0382 40.217 33.7711 41.8787 31.958 42.5945L25.0128 45.3374C22.7316 46.2385 20.571 43.7968 21.7425 41.6422L25.3929 34.8405M45.8518 3.11035C48.4768 5.7353 46.6645 17.8418 38.0797 26.4266C34.6709 29.8354 30.9697 32.4394 27.4768 34.0714C21.416 36.9035 23.3501 32.2853 20.0134 28.9487C16.6767 25.6118 12.0586 27.5464 14.8907 21.4853C16.5227 17.9926 19.1267 14.2913 22.5355 10.8824C31.1203 2.29762 43.2268 0.485377 45.8518 3.11035ZM13.1066 42.7194C11.3623 44.4638 3 46.5094 3 46.5094C3 46.5094 5.04569 38.147 6.78997 36.4029C8.53426 34.6586 11.3623 34.6586 13.1066 36.4029C14.8509 38.147 14.8509 40.9751 13.1066 42.7194ZM37.9771 13.6103C37.9771 15.0601 36.8019 16.2353 35.3521 16.2353C33.9026 16.2353 32.7271 15.0601 32.7271 13.6103C32.7271 12.1606 33.9026 10.9853 35.3521 10.9853C36.8019 10.9853 37.9771 12.1606 37.9771 13.6103Z" stroke="url(#paint1_linear_247_15)" stroke-width="3.28125" stroke-linecap="round"/>
<path d="M19.8601 12.2978L10.9413 13.2677C9.00345 13.4784 7.34188 14.7454 6.62586 16.5584L3.88294 23.5037C2.98204 25.7848 5.42358 27.9457 7.57832 26.7739L14.1657 23.3908M36.2186 29.3603L35.2487 38.2793C35.0382 40.217 33.7711 41.8787 31.958 42.5945L25.0128 45.3374C22.7316 46.2385 20.571 43.7968 21.7425 41.6422L25.3929 34.8405M45.8518 3.11035C48.4768 5.7353 46.6645 17.8418 38.0797 26.4266C34.6709 29.8354 30.9697 32.4394 27.4768 34.0714C21.416 36.9035 23.3501 32.2853 20.0134 28.9487C16.6767 25.6118 12.0586 27.5464 14.8907 21.4853C16.5227 17.9926 19.1267 14.2913 22.5355 10.8824C31.1203 2.29762 43.2268 0.485377 45.8518 3.11035ZM13.1066 42.7194C11.3623 44.4638 3 46.5094 3 46.5094C3 46.5094 5.04569 38.147 6.78997 36.4029C8.53426 34.6586 11.3623 34.6586 13.1066 36.4029C14.8509 38.147 14.8509 40.9751 13.1066 42.7194ZM37.9771 13.6103C37.9771 15.0601 36.8019 16.2353 35.3521 16.2353C33.9026 16.2353 32.7271 15.0601 32.7271 13.6103C32.7271 12.1606 33.9026 10.9853 35.3521 10.9853C36.8019 10.9853 37.9771 12.1606 37.9771 13.6103Z" stroke="#5A4D47" stroke-width="3.28125" stroke-linecap="round"/>
<defs>
<linearGradient id="paint0_linear_247_15" x1="24.9811" y1="2" x2="24.9811" y2="46.5094" gradientUnits="userSpaceOnUse">
<stop stop-color="#5A4D47"/>
<stop offset="1" stop-color="#D8BFB4"/>
</linearGradient>
<linearGradient id="paint1_linear_247_15" x1="24.9811" y1="2" x2="24.9811" y2="46.5094" gradientUnits="userSpaceOnUse">
<stop stop-color="#FEA700"/>
<stop offset="1" stop-color="#F7E651"/>
</linearGradient>
</defs>
</svg>
