<svg width="174" height="133" viewBox="0 0 174 133" fill="none" xmlns="http://www.w3.org/2000/svg">
<path d="M129.694 58.7565L127.102 60.7726L124.221 63.3648L101.612 82.2302L95.9953 86.9825L94.8432 87.9906L89.2268 92.7429L77.994 102.104L69.3534 109.304L64.313 113.48L51.7841 123.993L43.4315 131.194H43.2875H18.0857L12.0372 94.6151L10.3091 83.6703L3.54062 43.3474L1.8125 32.4026L10.3091 39.6031L40.9833 65.381L46.5997 69.9893L70.5055 90.0067L64.889 94.7591L42.2794 75.8937L36.807 71.2854L12.0372 50.4039L18.6617 90.8708L20.5339 101.672L24.2781 123.993H40.6953L58.8406 108.872L64.313 104.12L70.2174 99.2234L75.8338 94.4711L83.6104 87.9906L89.2268 83.2382L116.301 60.4846L119.901 57.4604L119.757 57.3164L115.581 51.556L87.7867 13.2492L56.6805 56.0203L83.4664 78.4859L77.85 83.2382L52.5042 61.9247L47.0318 57.3164L51.2081 51.4119L83.3224 7.20075L87.7867 1.0083L92.251 7.20075L121.053 46.8036L125.373 52.7081L125.517 52.8521L127.966 56.1643L129.694 58.7565Z" fill="#FF6326"/>
<path d="M172.609 32.5464L170.737 43.3472L166.704 68.261L165.408 76.1815L156.335 131.194H120.765L112.124 123.993L102.476 115.928L107.228 110.456L123.357 123.993H150.143L158.784 71.5732L160.08 63.6526L162.24 50.5477L92.8269 108.872L87.2105 113.48L74.6816 123.993H99.7394L108.38 131.194H54.9521L63.5928 123.993L81.5941 108.872L87.2105 104.12L164.112 39.6029L172.609 32.5464Z" fill="#FF6326"/>
</svg>
