<svg width="30" height="30" viewBox="0 0 30 30" fill="none" xmlns="http://www.w3.org/2000/svg">
<g clip-path="url(#clip0_2_55)">
<path d="M29.9737 11.5872C29.9103 11.3928 29.7422 11.251 29.5398 11.2215L19.8257 9.80974L15.4814 1.0074C15.3912 0.823753 15.2043 0.707764 15.0003 0.707764C14.7962 0.707764 14.6088 0.823753 14.5191 1.0074L10.1743 9.81027L0.460205 11.222C0.25776 11.2516 0.090219 11.3928 0.0263172 11.5877C-0.0365106 11.7816 0.0155774 11.9953 0.162176 12.1376L7.19191 18.9896L5.53207 28.6651C5.4977 28.8664 5.5804 29.0699 5.74526 29.1902C5.91119 29.3116 6.13082 29.3272 6.31071 29.231L15.0003 24.6634L23.6888 29.231C23.7672 29.2724 23.8536 29.2928 23.939 29.2928C24.0502 29.2928 24.1608 29.2584 24.2548 29.1902C24.4201 29.0699 24.5028 28.8664 24.4679 28.6651L22.8086 18.9901L29.8384 12.1376C29.9844 11.9942 30.0371 11.781 29.9737 11.5872Z" fill="#4B4A4F"/>
<g clip-path="url(#clip1_2_55)">
<path d="M29.9736 11.5872C29.9102 11.3928 29.7421 11.251 29.5397 11.2215L19.8255 9.80974L15.4813 1.0074C15.3911 0.823753 15.2042 0.707764 15.0002 0.707764C14.7961 0.707764 14.6087 0.823753 14.519 1.0074L10.1742 9.81027L0.460083 11.222C0.257638 11.2516 0.0900969 11.3928 0.0261951 11.5877C-0.0366327 11.7816 0.0154553 11.9953 0.162054 12.1376L7.19178 18.9896L5.53195 28.6651C5.49758 28.8664 5.58028 29.0699 5.74513 29.1902C5.91106 29.3116 6.13069 29.3272 6.31058 29.231L15.0002 24.6634L23.6886 29.231C23.767 29.2724 23.8535 29.2928 23.9389 29.2928C24.05 29.2928 24.1607 29.2584 24.2546 29.1902C24.42 29.0699 24.5027 28.8664 24.4678 28.6651L22.8085 18.9901L29.8382 12.1376C29.9843 11.9942 30.0369 11.781 29.9736 11.5872Z" fill="#FF6326"/>
</g>
</g>
<defs>
<clipPath id="clip0_2_55">
<rect width="30" height="30" fill="white"/>
</clipPath>
<clipPath id="clip1_2_55">
<rect width="20" height="28" fill="white" transform="translate(0 1)"/>
</clipPath>
</defs>
</svg>
