<svg width="60" height="42" viewBox="0 0 60 42" fill="none" xmlns="http://www.w3.org/2000/svg">
<path d="M55.1922 29.6179C54.9847 29.2824 54.6048 29.0734 54.2012 29.0734H48.2638V28.5472C48.2638 27.93 47.7453 27.4276 47.1089 27.4276H41.7864C45.951 20.3023 50.9648 9.42449 49.218 7.19746C47.9414 5.56854 38.6518 0.38541 29.5094 0.287384C20.288 0.167915 11.2505 5.16265 10.2817 7.3085C9.16591 9.77677 13.2799 19.5082 17.8535 27.4276H12.3969C11.7605 27.4276 11.2421 27.93 11.2421 28.5472V29.0734H6.18837C5.78477 29.0734 5.40492 29.2824 5.19662 29.6194C4.98065 29.9709 4.97989 30.4082 5.19355 30.7605L8.00415 35.3945L5.19355 40.0278C4.97836 40.3801 4.97989 40.8173 5.19738 41.1704C5.40492 41.5066 5.78477 41.7149 6.18837 41.7149H15.4296C15.677 41.7149 15.9129 41.6398 16.1104 41.4997L19.7167 38.9525C19.8446 38.8622 19.9174 38.7274 19.9373 38.5834H25.9843C25.9881 38.5872 25.9896 38.5934 25.9942 38.598C27.4102 39.9328 28.5437 40.5018 29.7828 40.5018C30.845 40.5018 32.0642 39.8692 33.4993 38.5834H40.4523C40.4715 38.7274 40.545 38.8629 40.6729 38.9525L44.2792 41.4997C44.479 41.6406 44.7141 41.7149 44.96 41.7149H54.2012C54.6048 41.7149 54.9847 41.5058 55.193 41.1689C55.4082 40.8181 55.4105 40.3816 55.1968 40.0278L52.3855 35.3937L55.1976 30.7582C55.4113 30.4074 55.4089 29.9709 55.1922 29.6179ZM11.2666 7.75498C11.9819 6.17201 20.5683 1.30364 29.4971 1.37027C38.3325 1.46523 47.3011 6.50668 48.3656 7.86603C49.3512 9.12352 46.0773 18.1059 40.5289 27.4284H37.8807C41.0918 21.6647 45.6875 11.29 44.2118 9.34637C43.1197 7.90891 36.1108 4.31411 29.5982 4.24212C29.5316 4.24136 29.465 4.24136 29.3968 4.24136C22.9233 4.24136 16.102 7.66844 15.3193 9.45665C14.3613 11.6477 18.3873 21.2856 21.7653 27.4284H19.1064C13.7785 18.3441 10.5176 9.41147 11.2666 7.75498ZM16.3111 9.89088C16.8028 8.76894 22.8942 5.32424 29.3853 5.32424C29.4519 5.32424 29.5193 5.32424 29.5867 5.32501C36.1369 5.39699 42.6081 9.02396 43.3502 10.0012C44.0663 10.9447 41.2855 19.2953 36.6377 27.4291H23.0037V27.4284C18.8284 20.0144 15.6977 11.2916 16.3111 9.89088ZM15.4289 40.6335H6.1876C6.15237 40.6335 6.12633 40.6175 6.11791 40.5907L9.09928 35.6763C9.2042 35.504 9.2042 35.2873 9.09928 35.115L6.11714 30.1884C6.1271 30.1731 6.15314 30.1562 6.18837 30.1562H11.2421V37.4653C11.2421 38.0826 11.7605 38.5842 12.3969 38.5842H18.3566L15.4289 40.6335ZM29.7828 39.4197C29.0989 39.4197 28.4273 39.1601 27.6507 38.5834H31.7762C31.002 39.1302 30.3242 39.4197 29.7828 39.4197ZM12.3962 37.5013C12.3487 37.5013 12.3234 37.4737 12.3234 37.4645V28.548H12.3242C12.3242 28.538 12.3487 28.5105 12.3969 28.5105H47.1089C47.1564 28.5105 47.1816 28.538 47.1816 28.548V37.4645C47.1816 37.4745 47.1571 37.5013 47.1089 37.5013H12.3962ZM51.2903 35.1142C51.1846 35.2865 51.1846 35.5033 51.2903 35.6756L54.2725 40.6014C54.2625 40.6167 54.2365 40.6328 54.2012 40.6328L44.9041 40.6159L42.0253 38.5827H47.1081C47.7445 38.5827 48.263 38.0803 48.263 37.4638V30.1547H54.2012C54.2365 30.1547 54.2625 30.1716 54.2725 30.1984L51.2903 35.1142Z" fill="#FF6326"/>
<path d="M59.6991 12.0712C59.637 11.8047 59.3797 11.6255 59.1132 11.6569C58.8689 11.6845 53.0946 12.3622 50.2097 16.1829C47.3118 20.0197 48.5333 25.4119 48.5869 25.6386C48.5946 25.6739 48.6129 25.7037 48.6275 25.7351C48.6374 25.7558 48.642 25.778 48.6543 25.7979C48.6895 25.8554 48.7339 25.9044 48.786 25.9442C48.7875 25.9457 48.7891 25.948 48.7906 25.9495C48.8166 25.9687 48.8457 25.9786 48.8733 25.9924C48.8963 26.0039 48.9162 26.0192 48.9399 26.0269C48.9966 26.046 49.0548 26.056 49.113 26.056C49.1329 26.056 49.1528 26.0552 49.1735 26.0529C49.4171 26.0254 55.1914 25.3468 58.077 21.5269C60.9742 17.6909 59.7527 12.2994 59.6991 12.0712ZM57.2124 20.8752C55.3966 23.2799 52.1717 24.3214 50.3682 24.7342L56.053 17.0897C56.2314 16.85 56.1816 16.5107 55.9419 16.3323C55.7007 16.1531 55.3622 16.2044 55.1845 16.4433L49.4531 24.1521C49.2761 22.4244 49.2616 19.234 51.0728 16.8354C53.2125 14.0019 57.3166 13.0576 58.7357 12.8087C58.9501 14.1703 59.3276 18.0753 57.2124 20.8752Z" fill="#FF6326"/>
<path d="M10.8868 26.635C10.945 26.635 11.0032 26.625 11.0599 26.6051C11.0844 26.5974 11.1043 26.5821 11.1265 26.5706C11.1541 26.5568 11.1832 26.5469 11.2092 26.5277C11.2108 26.5262 11.2123 26.5239 11.2138 26.5224C11.2659 26.4826 11.3103 26.4335 11.3455 26.3761C11.3578 26.3562 11.3624 26.334 11.3723 26.3133C11.3869 26.2811 11.4045 26.252 11.4129 26.2168C11.4665 25.9894 12.688 20.5972 9.79015 16.7604C6.90604 12.9396 1.13092 12.2619 0.886622 12.2343C0.613987 12.2006 0.362029 12.3821 0.300763 12.6486C0.247155 12.8761 -0.974342 18.2683 1.92355 22.1043C4.8092 25.925 10.5835 26.6036 10.8271 26.6311C10.847 26.6342 10.8669 26.635 10.8868 26.635ZM10.5445 24.728L4.81456 17.0223C4.63765 16.7826 4.29839 16.732 4.05715 16.9105C3.81745 17.0889 3.76844 17.4282 3.94611 17.6679L9.63085 25.3131C7.82733 24.8996 4.60319 23.8588 2.78664 21.4534C0.671424 18.6527 1.04898 14.7485 1.26341 13.3876C2.68172 13.6365 6.78657 14.58 8.92629 17.4136C10.7329 19.8061 10.7199 22.998 10.5445 24.728Z" fill="#FF6326"/>
<path d="M19.8322 13.7759C19.7502 13.4887 19.4516 13.3195 19.1628 13.4045C18.8757 13.4865 18.7095 13.7867 18.7914 14.0731C19.2831 15.7908 19.9034 17.5767 20.6363 19.381C20.7213 19.5909 20.9242 19.7188 21.1371 19.7188C21.2053 19.7188 21.2742 19.7057 21.3409 19.6789C21.6173 19.5664 21.7513 19.2508 21.638 18.9736C20.9204 17.2045 20.3124 15.4562 19.8322 13.7759Z" fill="#FF6326"/>
<path d="M19.0685 13.0001C19.3603 12.9351 19.5441 12.6463 19.479 12.3546C19.3488 11.7733 19.2385 11.0902 19.3994 10.4323C19.4706 10.1421 19.2929 9.84876 19.0019 9.77831C18.7208 9.71091 18.4191 9.88475 18.3479 10.175C18.1342 11.0496 18.2659 11.8866 18.4229 12.5904C18.4788 12.8424 18.7025 13.0139 18.9498 13.0139C18.9896 13.0139 19.0287 13.0093 19.0685 13.0001Z" fill="#FF6326"/>
<path d="M26.2524 25.2419H34.1787C34.4774 25.2419 34.7201 24.9999 34.7201 24.7005V22.1518C34.7194 21.8516 34.4766 21.6103 34.1779 21.6103H32.3943V10.7631C32.3943 10.5885 32.3101 10.4254 32.1684 10.3236C32.0267 10.2209 31.8452 10.1949 31.679 10.2508L26.2049 12.1026C25.9851 12.1776 25.8373 12.3836 25.8373 12.6157V15.3229C25.8373 15.4937 25.9177 15.6545 26.0548 15.7563C26.1919 15.859 26.3695 15.8904 26.5319 15.8421L28.2052 15.3497V21.6111H26.2524C25.9529 21.6111 25.7109 21.8531 25.7109 22.1518V24.7005C25.7109 24.9991 25.9529 25.2419 26.2524 25.2419ZM26.7923 22.6917H28.7452C29.0438 22.6917 29.2866 22.4497 29.2866 22.1503V14.6245C29.2866 14.4537 29.2062 14.2929 29.0699 14.191C28.9328 14.0891 28.7551 14.057 28.5928 14.1052L26.9194 14.5977V13.0017L31.3107 11.516V22.1495C31.3107 22.4482 31.5527 22.6909 31.8521 22.6909H33.6357V24.1583H26.7923V22.6917Z" fill="#FF6326"/>
</svg>
