<svg width="65" height="60" viewBox="0 0 65 60" fill="none" xmlns="http://www.w3.org/2000/svg">
<path fill-rule="evenodd" clip-rule="evenodd" d="M63.36 8.04001C63.84 4.92001 63.84 2.76001 63.84 2.76001C63.84 -1.31999 61.56 3.24001 53.76 0.96001C48.48 -0.599989 39.24 5.28001 32.16 5.28001C24.96 5.28001 15.72 -0.599989 10.44 0.96001C2.87998 3.24001 0.59998 -1.31999 0.59998 2.76001C0.59998 2.76001 -0.120019 25.08 13.92 28.32C21.84 29.28 27.6 24 32.28 24C36.96 24 41.04 29.76 50.88 28.2C53.64 27.84 55.8 24.48 57.48 22.68L62.4 60L63.36 8.04001ZM24.6 17.28C24 17.04 23.16 16.44 22.08 16.8C20.28 17.28 17.64 17.16 14.88 16.32C10.44 14.88 8.15998 8.16001 8.15998 8.16001C8.15998 8.16001 14.52 7.68001 18.96 9.12001C21 9.84001 21.48 10.08 22.8 11.16C25.2 13.32 25.32 17.52 24.6 17.28ZM42 11.16C43.2 10.2 43.8 9.84001 45.84 9.12001C50.28 7.68001 56.64 8.16001 56.64 8.16001C56.64 8.16001 54.24 14.76 49.92 16.32C47.16 17.28 44.52 17.4 42.72 16.8C41.64 16.44 40.8 17.04 40.2 17.28C39.48 17.52 39.48 13.2 42 11.16Z" stroke="#FF6326" stroke-miterlimit="10"/>
</svg>
