<svg width="56" height="60" viewBox="0 0 56 60" fill="none" xmlns="http://www.w3.org/2000/svg">
<path d="M46.5618 14.2519C56.8143 24.5016 56.8143 41.1225 46.5618 51.3722C36.3102 61.6266 19.6893 61.6266 9.43867 51.3722C-0.812891 41.1225 -0.812891 24.5016 9.43867 14.2519C19.6893 3.99937 36.3102 3.99937 46.5618 14.2519Z" stroke="#FF6326" stroke-width="2" stroke-miterlimit="10"/>
<path d="M28 6.5625V0.9375H33.625" stroke="#FF6326" stroke-width="2" stroke-miterlimit="10"/>
<path d="M22.375 0.9375H28" stroke="#FF6326" stroke-width="2" stroke-miterlimit="10"/>
<path d="M28 59.0625V55.3125" stroke="#FF6326" stroke-width="2" stroke-miterlimit="10"/>
<path d="M28 10.3125V6.5625" stroke="#FF6326" stroke-width="2" stroke-miterlimit="10"/>
<path d="M1.75 32.8125H5.5" stroke="#FF6326" stroke-width="2" stroke-miterlimit="10"/>
<path d="M50.5 32.8125H54.25" stroke="#FF6326" stroke-width="2" stroke-miterlimit="10"/>
<path d="M11.6543 16.4672L14.3074 19.1194" stroke="#FF6326" stroke-width="2" stroke-miterlimit="10"/>
<path d="M41.6934 46.5056L44.3465 49.1587" stroke="#FF6326" stroke-width="2" stroke-miterlimit="10"/>
<path d="M44.3465 16.4672L41.6943 19.1194" stroke="#FF6326" stroke-width="2" stroke-miterlimit="10"/>
<path d="M14.3084 46.5056L11.6543 49.1587" stroke="#FF6326" stroke-width="2" stroke-miterlimit="10"/>
<path d="M28 19.6875V30.9375" stroke="#FF6326" stroke-width="2" stroke-miterlimit="10"/>
<path d="M28 35.625C29.5533 35.625 30.8125 34.3658 30.8125 32.8125C30.8125 31.2592 29.5533 30 28 30C26.4467 30 25.1875 31.2592 25.1875 32.8125C25.1875 34.3658 26.4467 35.625 28 35.625Z" stroke="#FF6326" stroke-width="2" stroke-miterlimit="10"/>
</svg>
