<svg width="60" height="28" viewBox="0 0 60 28" fill="none" xmlns="http://www.w3.org/2000/svg">
<path d="M30 10.8724C34.4845 6.38692 39.1458 1.46278 46.2724 1.46278C53.7476 1.46278 58.9345 6.91554 58.9345 14.4766C58.8766 21.778 52.8693 27.6249 45.5689 27.4904C40.3903 27.4904 36.2689 24.2028 32.6689 20.7331M29.9989 18.0807C25.5145 22.5652 20.8531 27.4904 13.7265 27.4904C6.33928 27.4904 1.06445 22.0376 1.06445 14.4766C1.12195 7.1752 7.12962 1.3283 14.43 1.46278C19.6231 1.46278 23.7527 4.76692 27.3507 8.24692M23.7548 11.8417C21.0796 9.25244 18.12 6.73968 14.3389 6.73968C10.0676 6.74537 6.60721 10.2062 6.601 14.4776C6.38925 18.7324 9.81618 22.2797 14.0762 22.2155C19.0872 22.2161 23.132 17.9059 26.4693 14.4776M36.1945 17.0855C38.8779 19.6852 41.8448 22.2155 45.6382 22.2155C49.9096 22.2102 53.372 18.749 53.3782 14.4776H53.3787C53.5904 10.2228 50.1635 6.67554 45.9035 6.73968C40.8904 6.73968 36.8456 11.0483 33.5 14.4776" stroke="#FF6326" stroke-linecap="round"/>
</svg>
