<svg width="60" height="45" viewBox="0 0 60 45" fill="none" xmlns="http://www.w3.org/2000/svg">
<path d="M8.99996 34.2669H26.9999C27.5519 34.2669 27.9999 33.8189 27.9999 33.2669C27.9999 32.715 27.5519 32.267 26.9999 32.267H8.99996C8.44801 32.267 8 32.715 8 33.2669C8 33.8189 8.44801 34.2669 8.99996 34.2669Z" fill="#FF6326"/>
<path d="M58.9999 18.267H5.00003C4.44808 18.267 4.00007 18.715 4.00007 19.2669C4.00007 19.8189 4.44808 20.2669 5.00003 20.2669H58V39.2668C58 40.9208 56.654 42.2668 55 42.2668H5.00003C3.60902 42.2668 2.00004 41.2408 2.00004 39.2668V17.2669C2.00004 16.7149 1.55203 16.2669 1.00008 16.2669C0.448124 16.2669 0 16.7149 0 17.2669V39.2668C0 41.6699 1.94695 44.2668 5.00003 44.2668H55C57.7569 44.2668 60 42.0239 60 39.2668V19.2669C59.9999 18.715 59.5519 18.267 58.9999 18.267Z" fill="#FF6326"/>
<path d="M54.9999 0.266998H5.00003C2.24296 0.266998 0 2.50996 0 5.26691V11.2669C0 11.8189 0.448007 12.2669 0.999959 12.2669H54.9999C55.5518 12.2669 55.9998 11.8189 55.9998 11.2669C55.9998 10.7149 55.5518 10.2669 54.9999 10.2669H2.00004V5.26691C2.00004 3.61293 3.34605 2.26692 5.00003 2.26692H55C56.654 2.26692 58 3.61293 58 5.26691V15.2669C58 15.8188 58.448 16.2668 58.9999 16.2668C59.5519 16.2668 59.9999 15.8188 59.9999 15.2669V5.26691C59.9999 2.50996 57.7569 0.266998 54.9999 0.266998Z" fill="#FF6326"/>
<path d="M35 30.2669C35.5519 30.2669 35.9999 29.8189 35.9999 29.267C35.9999 28.715 35.5519 28.267 35 28.267H27C26.448 28.267 26 28.715 26 29.267C26 29.8189 26.448 30.2669 27 30.2669H35Z" fill="#FF6326"/>
<path d="M8.99996 30.2669H23C23.5519 30.2669 23.9999 29.8189 23.9999 29.267C23.9999 28.715 23.5519 28.267 23 28.267H8.99996C8.44801 28.267 8 28.715 8 29.267C8 29.8189 8.44801 30.2669 8.99996 30.2669Z" fill="#FF6326"/>
</svg>
