<svg width="46" height="9" viewBox="0 0 46 9" fill="none" xmlns="http://www.w3.org/2000/svg">
<path fill-rule="evenodd" clip-rule="evenodd" d="M42.7929 4.20711L40.7071 2.12132C40.3166 1.7308 40.3166 1.09763 40.7071 0.707107C41.0976 0.316583 41.7308 0.316582 42.1213 0.707107L44.9142 3.5C45.3047 3.89052 45.3047 4.52369 44.9142 4.91421L42.1213 7.70711C41.7308 8.09763 41.0976 8.09763 40.7071 7.70711C40.3166 7.31658 40.3166 6.68342 40.7071 6.29289L42.7929 4.20711Z" fill="white"/>
<path fill-rule="evenodd" clip-rule="evenodd" d="M22.7929 4.20711L20.7071 2.12132C20.3166 1.7308 20.3166 1.09763 20.7071 0.707107C21.0976 0.316583 21.7308 0.316582 22.1213 0.707107L24.9142 3.5C25.3047 3.89052 25.3047 4.52369 24.9142 4.91421L22.1213 7.70711C21.7308 8.09763 21.0976 8.09763 20.7071 7.70711C20.3166 7.31658 20.3166 6.68342 20.7071 6.29289L22.7929 4.20711Z" fill="white"/>
<path fill-rule="evenodd" clip-rule="evenodd" d="M2.79289 4.20711L0.707107 2.12132C0.316583 1.7308 0.316583 1.09763 0.707107 0.707107C1.09763 0.316583 1.7308 0.316582 2.12132 0.707107L4.91421 3.5C5.30474 3.89052 5.30474 4.52369 4.91421 4.91421L2.12132 7.70711C1.7308 8.09763 1.09763 8.09763 0.707107 7.70711C0.316582 7.31658 0.316583 6.68342 0.707107 6.29289L2.79289 4.20711Z" fill="white"/>
</svg>
