<svg width="100" height="100" viewBox="0 0 100 100" fill="none" xmlns="http://www.w3.org/2000/svg">
<g filter="url(#filter0_b_11_472)">
<rect x="6" y="6" width="88.75" height="88.75" rx="44.375" fill="white" fill-opacity="0.28"/>
</g>
<path d="M50.0316 55.6451H28.9385C27.0426 55.6451 25.5 54.1025 25.5 52.2066V32.7401C25.5 30.8409 27.0426 29.2955 28.9385 29.2955H62.6147C64.5106 29.2955 66.0532 30.8409 66.0532 32.7401V43.1421C66.0532 43.5675 65.7084 43.9123 65.283 43.9123C64.8575 43.9123 64.5127 43.5675 64.5127 43.1421V32.7401C64.5127 31.6903 63.6612 30.8361 62.6147 30.8361H28.9385C27.8921 30.8361 27.0405 31.6903 27.0405 32.7401V52.2066C27.0405 53.2531 27.8921 54.1046 28.9385 54.1046H50.0316C50.4571 54.1046 50.8019 54.4494 50.8019 54.8748C50.8019 55.3003 50.4571 55.6451 50.0316 55.6451Z" fill="#73827B"/>
<path d="M35.675 46.6089H32.2253C31.7999 46.6089 31.4551 46.2641 31.4551 45.8386C31.4551 45.4131 31.7999 45.0683 32.2253 45.0683H35.675C36.1005 45.0683 36.4453 45.4131 36.4453 45.8386C36.4453 46.2641 36.1005 46.6089 35.675 46.6089Z" fill="#73827B"/>
<path d="M43.5598 46.6089H40.1101C39.6847 46.6089 39.3398 46.2641 39.3398 45.8386C39.3398 45.4131 39.6847 45.0683 40.1101 45.0683H43.5598C43.9852 45.0683 44.3301 45.4131 44.3301 45.8386C44.3301 46.2641 43.9852 46.6089 43.5598 46.6089Z" fill="#73827B"/>
<path d="M51.445 46.6089H47.9954C47.5699 46.6089 47.2251 46.2641 47.2251 45.8386C47.2251 45.4131 47.5699 45.0683 47.9954 45.0683H51.445C51.8705 45.0683 52.2153 45.4131 52.2153 45.8386C52.2153 46.2641 51.8705 46.6089 51.445 46.6089Z" fill="#73827B"/>
<path d="M59.3303 46.6089H55.8806C55.4552 46.6089 55.1104 46.2641 55.1104 45.8386C55.1104 45.4131 55.4552 45.0683 55.8806 45.0683H59.3303C59.7557 45.0683 60.1006 45.4131 60.1006 45.8386C60.1006 46.2641 59.7557 46.6089 59.3303 46.6089Z" fill="#73827B"/>
<path d="M35.675 50.88H32.2253C31.7999 50.88 31.4551 50.5351 31.4551 50.1097C31.4551 49.6842 31.7999 49.3394 32.2253 49.3394H35.675C36.1005 49.3394 36.4453 49.6842 36.4453 50.1097C36.4453 50.5351 36.1005 50.88 35.675 50.88Z" fill="#73827B"/>
<path d="M43.5598 50.88H40.1101C39.6847 50.88 39.3398 50.5351 39.3398 50.1097C39.3398 49.6842 39.6847 49.3394 40.1101 49.3394H43.5598C43.9852 49.3394 44.3301 49.6842 44.3301 50.1097C44.3301 50.5351 43.9852 50.88 43.5598 50.88Z" fill="#73827B"/>
<path d="M37.4821 40.8595H33.9091C32.556 40.8595 31.4551 39.7586 31.4551 38.4055V36.8448C31.4551 35.4917 32.556 34.3908 33.9091 34.3908H37.4821C38.8352 34.3908 39.9362 35.4917 39.9362 36.8448V38.4055C39.9362 39.7586 38.8352 40.8595 37.4821 40.8595ZM33.9091 35.9313C33.4054 35.9313 32.9956 36.3411 32.9956 36.8448V38.4055C32.9956 38.9092 33.4054 39.319 33.9091 39.319H37.4821C37.9858 39.319 38.3956 38.9092 38.3956 38.4055V36.8448C38.3956 36.3411 37.9858 35.9313 37.4821 35.9313H33.9091Z" fill="#73827B"/>
<path d="M67.1368 76.7045C58.6651 76.7045 51.7729 69.8123 51.7729 61.3409C51.7729 52.8691 58.6651 45.977 67.1368 45.977C75.6083 45.977 82.5004 52.8691 82.5004 61.3409C82.5004 69.8123 75.6083 76.7045 67.1368 76.7045ZM67.1368 47.5175C59.5145 47.5175 53.3135 53.7185 53.3135 61.3409C53.3135 68.9629 59.5145 75.1639 67.1368 75.1639C74.7589 75.1639 80.9599 68.9629 80.9599 61.3409C80.9599 53.7185 74.7589 47.5175 67.1368 47.5175Z" fill="#73827B"/>
<path d="M70.6531 59.8175C70.2277 59.8175 69.8828 59.4727 69.8828 59.0472V54.6949C69.8828 53.1805 68.651 51.9487 67.1366 51.9487C65.6223 51.9487 64.3901 53.1805 64.3901 54.6949V59.0472C64.3901 59.4727 64.0453 59.8175 63.6199 59.8175C63.1944 59.8175 62.8496 59.4727 62.8496 59.0472V54.6949C62.8496 52.3311 64.7729 50.4081 67.1366 50.4081C69.5004 50.4081 71.4234 52.3311 71.4234 54.6949V59.0472C71.4234 59.4727 71.0786 59.8175 70.6531 59.8175Z" fill="#73827B"/>
<path d="M71.2445 70.9593H63.0273C61.4506 70.9593 60.168 69.6766 60.168 68.1V61.1363C60.168 59.5596 61.4506 58.2769 63.0273 58.2769H71.2445C72.8212 58.2769 74.1038 59.5596 74.1038 61.1363V68.1C74.1038 69.6766 72.8212 70.9593 71.2445 70.9593ZM63.0273 59.8175C62.3001 59.8175 61.7085 60.409 61.7085 61.1363V68.1C61.7085 68.8272 62.3001 69.4188 63.0273 69.4188H71.2445C71.9718 69.4188 72.5633 68.8272 72.5633 68.1V61.1363C72.5633 60.409 71.9718 59.8175 71.2445 59.8175H63.0273Z" fill="#73827B"/>
<path d="M67.1365 65.1925C66.3735 65.1925 65.7524 64.5718 65.7524 63.8087C65.7524 63.0457 66.3735 62.4247 67.1365 62.4247C67.8996 62.4247 68.5203 63.0457 68.5203 63.8087C68.5203 64.5718 67.8996 65.1925 67.1365 65.1925ZM67.1365 63.652C67.0502 63.652 66.9798 63.7224 66.9798 63.8087C66.9798 63.9815 67.293 63.9815 67.293 63.8087C67.293 63.7224 67.2229 63.652 67.1365 63.652Z" fill="#73827B"/>
<path d="M67.1365 66.8116C66.711 66.8116 66.3662 66.4668 66.3662 66.0414V64.4223C66.3662 63.9968 66.711 63.652 67.1365 63.652C67.5619 63.652 67.9068 63.9968 67.9068 64.4223V66.0414C67.9068 66.4668 67.5619 66.8116 67.1365 66.8116Z" fill="#73827B"/>
<path d="M26.2703 73.0165C26.0732 73.0165 25.8761 72.9413 25.7257 72.7908C25.4248 72.4899 25.4248 72.0025 25.7257 71.7016L30.7204 66.7069C31.0213 66.406 31.5087 66.406 31.8096 66.7069C32.1105 67.0078 32.1105 67.4952 31.8096 67.7961L26.8149 72.7908C26.6644 72.9413 26.4674 73.0165 26.2703 73.0165Z" fill="#73827B"/>
<path d="M31.265 73.0165C31.0679 73.0165 30.8708 72.9413 30.7204 72.7908L25.7257 67.7961C25.4248 67.4952 25.4248 67.0078 25.7257 66.7069C26.0266 66.406 26.514 66.406 26.8149 66.7069L31.8096 71.7016C32.1105 72.0025 32.1105 72.4899 31.8096 72.7908C31.6592 72.9413 31.4621 73.0165 31.265 73.0165Z" fill="#73827B"/>
<path d="M35.7166 73.0165C35.5195 73.0165 35.3224 72.9413 35.172 72.7908C34.8711 72.4899 34.8711 72.0025 35.172 71.7016L40.1667 66.7069C40.4676 66.406 40.955 66.406 41.2559 66.7069C41.5568 67.0078 41.5568 67.4952 41.2559 67.7961L36.2612 72.7908C36.1107 72.9413 35.9136 73.0165 35.7166 73.0165Z" fill="#73827B"/>
<path d="M40.7113 73.0165C40.5142 73.0165 40.3171 72.9413 40.1667 72.7908L35.172 67.7961C34.8711 67.4952 34.8711 67.0078 35.172 66.7069C35.4728 66.406 35.9603 66.406 36.2612 66.7069L41.2559 71.7016C41.5568 72.0025 41.5568 72.4899 41.2559 72.7908C41.1054 72.9413 40.9084 73.0165 40.7113 73.0165Z" fill="#73827B"/>
<path d="M45.1628 73.0165C44.9658 73.0165 44.7687 72.9413 44.6182 72.7908C44.3174 72.4899 44.3174 72.0025 44.6182 71.7016L49.613 66.7069C49.9139 66.406 50.4013 66.406 50.7022 66.7069C51.0031 67.0078 51.0031 67.4952 50.7022 67.7961L45.7075 72.7908C45.557 72.9413 45.3599 73.0165 45.1628 73.0165Z" fill="#73827B"/>
<path d="M50.1576 73.0165C49.9605 73.0165 49.7634 72.9413 49.613 72.7908L44.6182 67.7961C44.3174 67.4952 44.3174 67.0078 44.6182 66.7069C44.9191 66.406 45.4066 66.406 45.7075 66.7069L50.7022 71.7016C51.0031 72.0025 51.0031 72.4899 50.7022 72.7908C50.5517 72.9413 50.3546 73.0165 50.1576 73.0165Z" fill="#73827B"/>
<circle cx="50" cy="50" r="49.5" stroke="white" stroke-miterlimit="2.3662" stroke-linecap="round" stroke-dasharray="7 14 22 8"/>
<defs>
<filter id="filter0_b_11_472" x="1" y="1" width="98.75" height="98.75" filterUnits="userSpaceOnUse" color-interpolation-filters="sRGB">
<feFlood flood-opacity="0" result="BackgroundImageFix"/>
<feGaussianBlur in="BackgroundImageFix" stdDeviation="2.5"/>
<feComposite in2="SourceAlpha" operator="in" result="effect1_backgroundBlur_11_472"/>
<feBlend mode="normal" in="SourceGraphic" in2="effect1_backgroundBlur_11_472" result="shape"/>
</filter>
</defs>
</svg>
