<svg width="100" height="100" viewBox="0 0 100 100" fill="none" xmlns="http://www.w3.org/2000/svg">
<g filter="url(#filter0_b_11_475)">
<rect x="6" y="6" width="88.75" height="88.75" rx="44.375" fill="white" fill-opacity="0.28"/>
</g>
<path d="M28.1826 58.2654C28.5979 58.2654 28.9346 57.9287 28.9346 57.5134V39.8408C28.9346 39.3604 29.1211 38.9469 29.5048 38.5766C29.508 38.5734 29.5111 38.5703 29.5142 38.5672L29.5778 38.5036C29.9712 38.1244 30.4867 37.9155 31.0297 37.9155H36.6249C37.0402 37.9155 37.3769 37.5788 37.3769 37.1635V31.5685C37.3769 31.0254 37.5858 30.5099 37.965 30.1165L38.0286 30.0529C38.0317 30.0498 38.0347 30.0467 38.0378 30.0436C38.4084 29.6598 38.8219 29.4733 39.3021 29.4733H49.2325V35.3954C49.2325 35.6868 49.4009 35.952 49.6646 36.0759C49.7667 36.1238 49.8757 36.1473 49.9843 36.1473C50.1564 36.1473 50.3268 36.0882 50.4644 35.9742L52.4373 34.3382L54.4101 35.9742C54.6345 36.1602 54.9462 36.2 55.2099 36.0759C55.4737 35.9519 55.642 35.6867 55.642 35.3954V29.4733H59.9395V33.84C59.9395 34.2553 60.2762 34.592 60.6915 34.592C61.1068 34.592 61.4434 34.2553 61.4434 33.84V28.7212C61.4434 28.5219 61.3643 28.3305 61.2231 28.1895C61.0822 28.0486 60.8909 27.9693 60.6915 27.9693H55.6099C55.5168 27.6599 55.2298 27.4343 54.8901 27.4343H49.9844C49.6446 27.4343 49.3577 27.6599 49.2646 27.9693H39.3021C38.4199 27.9693 37.6105 28.3236 36.9609 28.9938L28.4553 37.4994C27.7849 38.1488 27.4307 38.9583 27.4307 39.8408V57.5134C27.4307 57.9287 27.7673 58.2654 28.1826 58.2654ZM54.1382 33.795L52.9174 32.7825C52.639 32.5518 52.2358 32.5518 51.9573 32.7825L50.7364 33.795V28.9382H54.1381V33.795H54.1382ZM35.8731 36.4117H31.6699L35.8729 32.2086L35.8731 36.4117ZM33.9842 43.8304H54.8902C55.3055 43.8304 55.6421 44.1671 55.6421 44.5824C55.6421 44.9977 55.3055 45.3344 54.8902 45.3344H33.9842C33.5689 45.3344 33.2322 44.9977 33.2322 44.5824C33.2322 44.1671 33.5689 43.8304 33.9842 43.8304ZM43.283 40.4419C42.8677 40.4419 42.5311 40.1053 42.5311 39.69C42.5311 39.2747 42.8677 38.938 43.283 38.938H54.8902C55.3055 38.938 55.6421 39.2747 55.6421 39.69C55.6421 40.1053 55.3055 40.4419 54.8902 40.4419H43.283ZM77.3214 59.1681C76.7988 58.756 76.1124 58.701 75.5306 59.0244L73.68 60.0537C73.292 60.2695 73.045 60.6468 73.0021 61.0887C73.002 61.0902 73.0021 61.0916 73.0019 61.0931L72.2052 61.5363C71.0054 62.2034 69.719 62.3183 68.3815 61.8775C66.5767 61.2826 64.6523 61.6041 62.6602 62.8298C62.2437 62.5773 61.8389 62.3991 61.4435 62.2762V52.9001C61.4435 52.4848 61.1069 52.1481 60.6916 52.1481C60.2763 52.1481 59.9396 52.4848 59.9396 52.9001V62.0322C59.3733 62.0129 58.8216 62.0604 58.2767 62.1076C56.7997 62.2358 55.4043 62.3568 53.5058 61.289L53.1872 61.1098C53.1867 61.1026 53.1872 61.0956 53.1865 61.0885C53.1436 60.6467 52.8966 60.2695 52.5086 60.0537L52.4332 60.0117H54.8902C55.3055 60.0117 55.6421 59.6751 55.6421 59.2598C55.6421 58.8445 55.3055 58.5078 54.8902 58.5078H33.9842C33.5689 58.5078 33.2322 58.8445 33.2322 59.2598C33.2322 59.6751 33.5689 60.0117 33.9842 60.0117H47.9268C46.9623 60.9856 46.1765 62.1521 45.6131 63.4002H33.9842C33.5689 63.4002 33.2322 63.7369 33.2322 64.1522C33.2322 64.5675 33.5689 64.9042 33.9842 64.9042H45.0537C44.6022 66.4376 44.4871 68.0227 44.7835 69.4733C44.7837 69.4744 44.7841 69.4754 44.7843 69.4763H28.9346V60.4541C28.9346 60.0388 28.5979 59.7021 28.1826 59.7021C27.7673 59.7021 27.4307 60.0388 27.4307 60.4541V70.2282C27.4307 70.6435 27.7673 70.9801 28.1826 70.9801H46.5385L47.1887 71.2563C47.3592 71.3287 47.5365 71.3646 47.7125 71.3646C47.965 71.3646 48.2148 71.2906 48.4375 71.1447C48.4627 71.1283 48.4852 71.1094 48.5089 71.0917L51.7961 72.7862L52.6845 73.7422C52.4046 74.2516 52.332 74.8399 52.4836 75.4057C52.6395 75.9872 53.011 76.4725 53.53 76.7721C53.7925 76.9237 54.0775 77.0188 54.3706 77.0555C54.3076 77.3847 54.3195 77.727 54.4091 78.0612C54.565 78.6428 54.9366 79.128 55.4555 79.4276C56.1062 79.8034 56.8688 79.8157 57.5065 79.5285C57.6976 79.879 57.9842 80.1829 58.3545 80.3966C58.873 80.696 59.4792 80.775 60.0609 80.6191C60.2131 80.5783 60.3587 80.5228 60.4961 80.4537C60.6866 80.7801 60.9619 81.0628 61.312 81.2649C61.6566 81.4639 62.0397 81.5655 62.4289 81.5655C62.6252 81.5655 62.8232 81.5396 63.0182 81.4873C63.5418 81.347 63.9859 81.0311 64.288 80.5917L64.5119 80.7176C64.9867 80.9918 65.4469 81.1102 65.8677 81.1102C66.6632 81.1102 67.3175 80.6866 67.6617 80.0904C67.7928 79.8632 67.8818 79.6067 67.92 79.3394C68.1509 79.3528 68.3848 79.3293 68.6149 79.2677C69.177 79.1171 69.6461 78.7579 69.9356 78.2564C70.134 77.9128 70.2296 77.5295 70.2232 77.1413C70.3376 77.1285 70.4519 77.1081 70.5654 77.0777C71.1514 76.9207 71.6402 76.5463 71.9421 76.0235C72.1683 75.6316 72.2621 75.1998 72.2406 74.7783C72.3402 74.7652 72.4396 74.7455 72.5382 74.7191C73.1242 74.562 73.613 74.1877 73.9148 73.6648C74.1017 73.3411 74.2027 72.9721 74.2134 72.5982L77.6016 71.0306C77.6483 71.0712 77.6975 71.1098 77.7508 71.1447C77.9736 71.2905 78.2232 71.3645 78.4758 71.3645C78.6518 71.3645 78.829 71.3286 78.9998 71.2561L80.4509 70.6399C80.949 70.4284 81.2967 70.0031 81.405 69.4731C82.1274 65.9381 80.4098 61.6042 77.321 59.1678L77.3214 59.1681ZM47.5408 69.7721L46.9877 69.5371C46.9854 69.5362 46.9832 69.5352 46.9809 69.5342L46.3255 69.256C46.2817 69.2374 46.2663 69.2186 46.2569 69.1723C45.9535 67.6881 46.1631 66.0333 46.7727 64.4846C46.791 64.4477 46.8067 64.4094 46.8188 64.3694C47.4497 62.8225 48.4799 61.3892 49.7987 60.349C49.8412 60.3154 49.8797 60.3124 49.9272 60.3387L51.5604 61.2472C49.0257 63.4646 47.6406 66.4026 47.5408 69.7722V69.7721ZM54.8474 75.542C54.6534 75.5939 54.4529 75.5683 54.2823 75.4698C54.1111 75.3711 53.9885 75.2101 53.9366 75.0166C53.8848 74.8232 53.9106 74.6224 54.0093 74.4513L55.0856 72.5871C55.1841 72.4165 55.3451 72.2939 55.539 72.242C55.733 72.1901 55.9337 72.2157 56.1042 72.3142C56.2753 72.4129 56.398 72.574 56.4499 72.7674C56.5018 72.961 56.4759 73.1617 56.3772 73.3328C56.2785 73.5039 56.3771 73.3331 56.377 73.3332L55.3012 75.1967C55.3012 75.1967 55.3011 75.1969 55.3009 75.197C55.2024 75.3676 55.0414 75.4901 54.8475 75.5421L54.8474 75.542ZM56.2077 78.1253C55.8516 77.9197 55.7291 77.4628 55.9347 77.1066L56.4352 76.2397L57.6794 74.0846C57.6794 74.0845 57.6796 74.0843 57.6797 74.0842L57.6799 74.0839C57.8823 73.7343 58.3485 73.6097 58.6981 73.8116C59.0536 74.0169 59.1762 74.4728 58.9719 74.8288L57.5313 77.3239L57.2264 77.8524C57.0243 78.2024 56.5578 78.3275 56.2078 78.1254L56.2077 78.1253ZM59.6719 79.1665C59.4779 79.2185 59.2773 79.1929 59.1067 79.0944C58.7509 78.8889 58.6283 78.4323 58.8334 78.0764L58.8338 78.0758C58.8338 78.0758 58.8341 78.0755 58.8342 78.0753L60.2732 75.5827C60.2732 75.5827 60.2735 75.5823 60.2736 75.5821C60.3721 75.4115 60.5331 75.2889 60.727 75.2371C60.9206 75.1852 61.1216 75.2106 61.2923 75.3092C61.6481 75.5147 61.7706 75.9712 61.5656 76.3272C61.5656 76.3274 61.5654 76.3276 61.5651 76.3279C61.565 76.3283 61.5648 76.3285 61.5647 76.3288L60.4904 78.1898C60.49 78.1906 60.4893 78.1913 60.4889 78.1921L60.1256 78.8216C60.0271 78.9921 59.8661 79.1148 59.6723 79.1667L59.6719 79.1665ZM62.6293 80.0348C62.4348 80.0867 62.2345 80.0612 62.064 79.9628C61.7094 79.758 61.5866 79.3041 61.7885 78.9487L62.8684 77.0783C62.9669 76.9085 63.1274 76.7866 63.3207 76.7348C63.5143 76.683 63.7153 76.7085 63.886 76.807C64.242 77.0126 64.3645 77.4695 64.1588 77.8256L63.0825 79.6899C62.9841 79.8604 62.8231 79.9831 62.6292 80.035L62.6293 80.0348ZM72.6127 72.9132C72.5119 73.0881 72.3472 73.2137 72.1493 73.2667C71.9514 73.3198 71.7461 73.2933 71.5712 73.1923L69.9821 72.2748C69.6224 72.0672 69.1627 72.1904 68.9549 72.55C68.7473 72.9097 68.8706 73.3695 69.2301 73.5772L70.3605 74.2298C70.3605 74.2298 70.3609 74.23 70.361 74.2301C70.7189 74.4368 70.8466 74.9137 70.64 75.2718C70.5392 75.4467 70.3744 75.5722 70.1765 75.6254C69.9785 75.6783 69.7733 75.652 69.5984 75.5511L69.1402 75.2865L68.6135 74.9824C68.2539 74.7747 67.7939 74.898 67.5864 75.2576C67.3786 75.6172 67.5019 76.0771 67.8616 76.2847L68.3883 76.5889C68.5417 76.6774 68.6518 76.8222 68.6985 76.9965C68.7453 77.171 68.7222 77.3513 68.6336 77.5047C68.5449 77.6585 68.4002 77.7688 68.2262 77.8154C68.0518 77.8621 67.8715 77.8388 67.7178 77.7501L66.8641 77.2571C66.5044 77.0494 66.0445 77.1727 65.8369 77.5323C65.6292 77.892 65.7526 78.3519 66.1121 78.5595C66.6205 78.8531 66.388 79.2899 66.3598 79.3388C66.1675 79.6717 65.7581 79.7007 65.2569 79.4114L65.048 79.2938L65.4616 78.5776C66.0817 77.5033 65.7124 76.1248 64.6382 75.5046C64.1563 75.2264 63.5984 75.1387 63.0554 75.2527C62.8887 74.7451 62.5423 74.2946 62.0443 74.0071C61.5624 73.7289 61.0046 73.6411 60.4615 73.7552C60.2948 73.2475 59.9483 72.797 59.4502 72.5094C58.9524 72.222 58.3893 72.1472 57.8664 72.2564C57.6936 71.7291 57.3385 71.2903 56.8563 71.0118C56.3379 70.7125 55.7318 70.6336 55.1499 70.7894C54.568 70.9453 54.0827 71.3167 53.7833 71.8352L53.4699 72.378L52.8087 71.6665C52.7495 71.6028 52.6796 71.5498 52.6024 71.5099L49.0495 69.6784C49.1665 66.7905 50.3198 64.3578 52.483 62.4389L52.7689 62.5997C55.0719 63.895 56.8436 63.7415 58.4069 63.6059C59.4118 63.5186 60.2642 63.447 61.154 63.7674L57.7375 65.8975C57.2005 66.2323 56.8834 66.7359 56.8445 67.3154C56.8028 67.9359 57.1022 68.5908 57.6258 69.0242C59.3815 70.4782 60.971 69.7017 62.3734 69.0167C63.1958 68.6149 64.0462 68.1994 64.9575 68.1941H64.9768C65.9678 68.1941 66.7563 68.6503 67.6683 69.1778L72.2995 71.8517C72.5567 72.0414 72.6092 72.1481 72.6943 72.3666C72.7352 72.5544 72.7061 72.7518 72.6128 72.9133L72.6127 72.9132ZM73.0856 70.569L68.4212 67.8761C67.4133 67.2929 66.3715 66.6901 64.9772 66.6901C64.9677 66.6901 64.958 66.6901 64.9484 66.6901C63.6941 66.6976 62.6416 67.2117 61.7131 67.6653C60.2813 68.3647 59.5502 68.6654 58.5847 67.8659C58.434 67.7412 58.3354 67.5562 58.3447 67.4161C58.3471 67.3803 58.3536 67.2854 58.5329 67.1735L63.3993 64.1394C65.0378 63.1177 66.5133 62.8451 67.9108 63.3055C69.639 63.8752 71.3766 63.7176 72.9362 62.8502L73.6946 62.4284C75.8429 64.3292 76.9981 66.7355 77.1352 69.5895L73.7375 71.1615C73.601 70.9864 73.4153 70.8016 73.1486 70.6096C73.1283 70.595 73.1071 70.5814 73.0854 70.5688L73.0856 70.569ZM79.9318 69.1723C79.9224 69.2186 79.9071 69.2374 79.8633 69.256L78.6481 69.7721C78.5482 66.4026 77.1631 63.4646 74.6284 61.2471L76.2615 60.3387C76.309 60.3122 76.3475 60.3154 76.3901 60.349C79.0572 62.4527 80.5467 66.1635 79.9318 69.1723ZM55.2455 47.0099C55.2413 47.0181 55.2368 47.026 55.2329 47.0344C55.2217 47.0585 55.2117 47.0829 55.2032 47.1076C55.2029 47.1085 55.2024 47.1094 55.2021 47.1104C55.1927 47.1381 55.1851 47.1661 55.1791 47.1943C55.1789 47.195 55.1787 47.1958 55.1785 47.1965L54.8573 48.7229H33.9842C33.5689 48.7229 33.2322 49.0595 33.2322 49.4748C33.2322 49.8901 33.5689 50.2268 33.9842 50.2268H54.5409L53.8279 53.6154H33.9842C33.5689 53.6154 33.2322 53.9521 33.2322 54.3674C33.2322 54.7826 33.5689 55.1193 33.9842 55.1193H54.3838C54.4953 55.1603 54.6112 55.1824 54.727 55.1824C54.9505 55.1824 55.1717 55.106 55.353 54.9591C55.3622 54.952 55.3711 54.9449 55.3798 54.9373C55.3839 54.9338 55.3882 54.9308 55.3921 54.9272L60.5529 50.2995C60.5568 50.2961 60.5601 50.292 60.5639 50.2884C60.5751 50.2779 60.5858 50.2668 60.5964 50.2556C60.6081 50.2432 60.6194 50.2306 60.6301 50.2175C60.6391 50.2067 60.6478 50.1956 60.6561 50.1842C60.6676 50.1687 60.6782 50.1527 60.6884 50.1362C60.6928 50.1291 60.6979 50.1229 60.7021 50.1157L63.06 46.0316C63.2677 45.672 63.1444 45.2121 62.7848 45.0045C62.4252 44.7968 61.9654 44.92 61.7576 45.2797L59.7757 48.7126L56.9415 47.0762L62.8163 36.9008L65.6504 38.537L63.2279 42.7329C63.0203 43.0926 63.1436 43.5524 63.5031 43.7601C63.8629 43.9679 64.3227 43.8445 64.5303 43.4849L69.9542 34.0903C70.82 32.5908 70.3043 30.6664 68.8048 29.8007C68.0807 29.3826 67.2349 29.2723 66.4227 29.4897C65.6107 29.7073 64.9333 30.226 64.5152 30.95L55.263 46.9753C55.2565 46.9866 55.2512 46.9983 55.2453 47.0099H55.2455ZM55.5419 52.773L56.4366 48.5212L58.7767 49.8723L55.5419 52.773ZM63.5682 35.5984L64.4766 34.0251L67.3107 35.6613L66.4024 37.2346L63.5682 35.5984ZM66.8121 30.9425C67.2361 30.8289 67.6768 30.886 68.053 31.1032C68.4293 31.3204 68.699 31.6736 68.8126 32.0975C68.9261 32.5214 68.8691 32.9621 68.6519 33.3384L68.0627 34.3591L65.2286 32.7228L65.8179 31.7022C66.035 31.326 66.3882 31.0563 66.8122 30.9426L66.8121 30.9425Z" fill="#73827B"/>
<circle cx="50" cy="50" r="49.5" stroke="white" stroke-miterlimit="2.3662" stroke-linecap="round" stroke-dasharray="7 14 22 8"/>
<defs>
<filter id="filter0_b_11_475" x="1" y="1" width="98.75" height="98.75" filterUnits="userSpaceOnUse" color-interpolation-filters="sRGB">
<feFlood flood-opacity="0" result="BackgroundImageFix"/>
<feGaussianBlur in="BackgroundImageFix" stdDeviation="2.5"/>
<feComposite in2="SourceAlpha" operator="in" result="effect1_backgroundBlur_11_475"/>
<feBlend mode="normal" in="SourceGraphic" in2="effect1_backgroundBlur_11_475" result="shape"/>
</filter>
</defs>
</svg>
