<svg width="100" height="100" viewBox="0 0 100 100" fill="none" xmlns="http://www.w3.org/2000/svg">
<g filter="url(#filter0_b_11_473)">
<rect x="6" y="6" width="88.75" height="88.75" rx="44.375" fill="white" fill-opacity="0.28"/>
</g>
<circle cx="50" cy="50" r="49.5" stroke="white" stroke-miterlimit="2.3662" stroke-linecap="round" stroke-dasharray="7 14 22 8"/>
<g clip-path="url(#clip0_11_473)">
<path d="M66.5999 34.2319C66.2879 33.6915 65.7066 33.3559 65.0826 33.3559H35.252C34.628 33.3559 34.0467 33.6915 33.7348 34.2319L31.606 37.919C31.368 38.3312 31.5092 38.8582 31.9214 39.0962C32.3335 39.3342 32.8606 39.1929 33.0986 38.7807L34.7381 35.9411L40.9601 46.7178H28.5161L31.1468 42.1613C31.3847 41.7491 31.2435 41.222 30.8313 40.9841C30.4191 40.7459 29.892 40.8874 29.6541 41.2995L26.4704 46.814C26.1683 47.3371 26.2357 47.9914 26.638 48.4421L49.1028 73.6028C49.3672 73.899 49.7465 74.0689 50.1437 74.0692H50.1443C50.5411 74.0692 50.9204 73.8996 51.185 73.6039L73.6954 48.4428C74.0986 47.9921 74.1663 47.3375 73.864 46.8136L66.5999 34.2319ZM51.9853 46.7179H43.9452L50.1672 35.9411L56.3892 46.7179H56.3145C55.8385 46.7179 55.4527 47.1038 55.4527 47.5797C55.4527 48.0557 55.8386 48.4414 56.3145 48.4414H56.7294L50.1463 70.7846L43.603 48.4416H51.9853C52.4613 48.4416 52.8471 48.0557 52.8471 47.5798C52.8472 47.1038 52.4613 46.7179 51.9853 46.7179ZM57.8819 45.8562L51.6599 35.0794H64.1039L57.8819 45.8562ZM58.5264 48.4416H71.3838L52.2128 69.87L58.5264 48.4416ZM71.8185 46.7179H59.3745L65.5965 35.9412L71.8185 46.7179ZM36.2307 35.0794H48.6747L42.4527 45.8561L36.2307 35.0794ZM41.807 48.4416L48.0835 69.8734L28.9481 48.4416H41.807Z" fill="#73827B"/>
<path d="M71.0242 70.8569C70.9832 70.8296 70.9399 70.8058 70.8949 70.7859C70.3477 70.5439 69.8432 70.258 69.3952 69.9366C69.0087 69.6592 68.4702 69.7476 68.1926 70.1343C67.9151 70.521 68.0036 71.0594 68.3903 71.337C68.6531 71.5256 68.9309 71.7036 69.2217 71.8699C67.3606 72.9319 66.0698 74.4533 65.4376 76.3343C64.8055 74.4536 63.515 72.9323 61.6542 71.8703C63.5152 70.8084 64.8057 69.2869 65.4378 67.406C65.4465 67.432 65.4554 67.4578 65.4643 67.4836C65.6208 67.9331 66.1119 68.1705 66.5616 68.0141C67.011 67.8575 67.2484 67.3663 67.0921 66.9167C67.0265 66.7289 66.969 66.5337 66.9207 66.3368L66.5625 64.8733C66.4352 64.3537 65.9727 63.9907 65.4376 63.9907C64.9026 63.9907 64.44 64.3537 64.3127 64.8735L63.9545 66.3368C63.344 68.8311 61.4563 70.133 59.9803 70.786C59.9352 70.806 59.892 70.8297 59.8509 70.8571C59.5112 71.0835 59.3086 71.4623 59.3086 71.8705C59.3086 72.2786 59.5114 72.6574 59.8509 72.8838C59.8918 72.9112 59.9351 72.9348 59.9803 72.9549C61.4563 73.6078 63.3439 74.9098 63.9545 77.4041L64.3128 78.8676C64.44 79.3872 64.9026 79.7502 65.4376 79.7502C65.9727 79.7502 66.4352 79.3872 66.5625 78.8674L66.9207 77.4041C67.5313 74.9098 69.419 73.6079 70.895 72.9549C70.9399 72.935 70.9832 72.9112 71.0243 72.8839C71.3639 72.6576 71.5667 72.2787 71.5667 71.8705C71.5667 71.4622 71.3638 71.0833 71.0242 70.8569Z" fill="#73827B"/>
<path d="M75.111 32.8941C75.0699 32.8667 75.0266 32.8429 74.9814 32.823C74.0266 32.4006 73.434 31.7432 73.22 30.8691L73.0395 30.1313C72.9283 29.6776 72.5244 29.3605 72.0574 29.3605C72.0574 29.3605 72.0572 29.3605 72.0571 29.3605C71.59 29.3606 71.1862 29.6777 71.0752 30.1313L70.8946 30.8691C70.6806 31.7432 70.088 32.4006 69.1332 32.823C69.0881 32.8429 69.0447 32.8667 69.0036 32.8941C68.7133 33.0877 68.5399 33.4117 68.54 33.7607C68.54 34.1096 68.7135 34.4336 69.004 34.627C69.0449 34.6543 69.0881 34.6781 69.1332 34.698C70.0881 35.1204 70.6806 35.7778 70.8946 36.6521L71.0752 37.3896C71.1863 37.8435 71.5901 38.1604 72.0572 38.1605H72.0575C72.5246 38.1605 72.9284 37.8437 73.0396 37.3898L73.2202 36.6521C73.4342 35.7779 74.0269 35.1205 74.9817 34.6982C75.0266 34.6782 75.0699 34.6546 75.1109 34.6271C75.4013 34.4337 75.5747 34.1097 75.5748 33.7608C75.5747 33.4116 75.4013 33.0877 75.111 32.8941ZM72.0572 35.0002C71.7697 34.5271 71.3907 34.1114 70.9269 33.7606C71.3908 33.4098 71.7698 32.9941 72.0574 32.521C72.3449 32.9941 72.7239 33.4098 73.1877 33.7606C72.7238 34.1114 72.3448 34.527 72.0572 35.0002Z" fill="#73827B"/>
<path d="M28.5383 30.9831L28.7971 32.04C28.9153 32.5227 29.345 32.8599 29.842 32.8599C30.339 32.8599 30.7688 32.5227 30.8868 32.04L31.1456 30.9831C31.5635 29.2764 32.8632 28.382 33.8801 27.932C33.9252 27.9121 33.9685 27.8883 34.0094 27.8609C34.3214 27.653 34.5077 27.305 34.5077 26.9301C34.5077 26.5551 34.3215 26.2071 34.0095 25.999C33.9685 25.9716 33.9252 25.9479 33.88 25.9279C32.8632 25.4781 31.5635 24.5836 31.1456 22.8769L30.8868 21.8201C30.7687 21.3372 30.3389 21 29.8418 21C29.3449 21 28.9152 21.3372 28.797 21.82L28.5382 22.8768C28.1205 24.5835 26.8207 25.478 25.8039 25.9278C25.7588 25.9477 25.7155 25.9715 25.6745 25.9989C25.3624 26.2071 25.1763 26.5551 25.1763 26.9301C25.1763 27.3051 25.3626 27.6531 25.6746 27.861C25.7156 27.8883 25.7588 27.9121 25.8038 27.932C26.8207 28.3818 28.1205 29.2764 28.5383 30.9831ZM29.8418 24.3578C30.3168 25.3974 31.0839 26.2665 32.1126 26.93C31.084 27.5934 30.3168 28.4626 29.8418 29.5022C29.3669 28.4626 28.5997 27.5935 27.5711 26.93C28.5997 26.2665 29.3669 25.3973 29.8418 24.3578Z" fill="#73827B"/>
</g>
<defs>
<filter id="filter0_b_11_473" x="1" y="1" width="98.75" height="98.75" filterUnits="userSpaceOnUse" color-interpolation-filters="sRGB">
<feFlood flood-opacity="0" result="BackgroundImageFix"/>
<feGaussianBlur in="BackgroundImageFix" stdDeviation="2.5"/>
<feComposite in2="SourceAlpha" operator="in" result="effect1_backgroundBlur_11_473"/>
<feBlend mode="normal" in="SourceGraphic" in2="effect1_backgroundBlur_11_473" result="shape"/>
</filter>
<clipPath id="clip0_11_473">
<rect width="58.75" height="58.75" fill="white" transform="translate(21 21)"/>
</clipPath>
</defs>
</svg>
