<svg width="206" height="61" viewBox="0 0 206 61" fill="none" xmlns="http://www.w3.org/2000/svg">
<path d="M52.6886 0.536316H7.77507C3.48102 0.536316 0 3.16379 0 6.40494V55.1314C0 58.3725 3.48102 61 7.77507 61H52.6886C56.9827 61 60.4637 58.3725 60.4637 55.1314V6.40494C60.4637 3.16379 56.9827 0.536316 52.6886 0.536316Z" fill="#405149"/>
<path fill-rule="evenodd" clip-rule="evenodd" d="M33.1395 52.9011H17.5684V37.9412L30.3567 50.7289C31.2113 51.5837 32.1472 52.3078 33.1397 52.9013L33.1395 52.9011Z" fill="#ED2939"/>
<path fill-rule="evenodd" clip-rule="evenodd" d="M38.9771 52.9012C35.9941 52.9012 33.0112 51.7638 30.7354 49.4873L17.5774 36.3302L17.577 36.3305L17.5684 36.3249C19.8454 34.0484 22.8327 32.9074 25.8118 32.9074C28.7993 32.9074 31.7783 34.0484 34.0552 36.3249L47.2207 49.4855C47.2127 49.4908 47.2121 49.496 47.2052 49.501C47.2049 49.5016 47.2045 49.5019 47.204 49.5024C47.204 49.5021 47.2045 49.5016 47.2048 49.5013L47.2034 49.5022C47.2034 49.5077 47.1949 49.5077 47.1949 49.5134L47.1897 49.5167L47.1881 49.5185L47.1891 49.5171L47.1864 49.5189C47.1864 49.5189 47.1864 49.5244 47.1778 49.5244C47.1778 49.5262 47.1778 49.5274 47.1775 49.5283C47.1772 49.5301 47.1758 49.5311 47.1727 49.5332L47.1691 49.5355C46.8532 49.8476 46.5236 50.137 46.1825 50.4043C46.5248 50.1369 46.8555 49.847 47.172 49.534C44.9021 51.7788 41.9396 52.9013 38.9771 52.9013V52.9012ZM26.2579 35.8435C27.8994 36.3972 29.442 37.3279 30.7512 38.6371L38.269 46.155L30.7509 38.6347C29.4439 37.3261 27.9007 36.3965 26.2579 35.8435ZM43.9089 51.7949H43.9091L43.934 51.7833L43.9089 51.7949Z" fill="url(#paint0_linear_5_229)"/>
<path fill-rule="evenodd" clip-rule="evenodd" d="M17.5684 20.2909V31.9463H28.3752C34.8126 31.9463 40.0305 26.7281 40.0305 20.2909C40.0305 13.8536 34.8124 8.63556 28.3752 8.63556H17.5684V20.2909Z" fill="#ED2939"/>
<path fill-rule="evenodd" clip-rule="evenodd" d="M30.7509 38.6346L38.269 46.1549L43.9077 51.7952C44.7066 51.4245 45.47 50.9625 46.1824 50.4042C46.1894 50.3988 46.1964 50.3933 46.2034 50.3877C46.5372 50.1249 46.8596 49.8411 47.1691 49.5353L47.1718 49.5337L47.1727 49.5331L47.1775 49.5282C47.1778 49.5273 47.1778 49.5261 47.1778 49.5243C47.1796 49.5243 47.1811 49.524 47.1823 49.5237C47.1836 49.5225 47.1849 49.521 47.1861 49.5198C47.1864 49.5192 47.1864 49.5188 47.1864 49.5188C47.1864 49.5188 47.1869 49.5183 47.1876 49.5179C47.1881 49.5176 47.1885 49.5173 47.1891 49.517C47.1915 49.5153 47.1949 49.5133 47.1949 49.5133C47.1949 49.5122 47.1952 49.5113 47.1957 49.5106C47.1961 49.51 47.1967 49.5094 47.1975 49.5088C47.1994 49.5069 47.2015 49.5048 47.2034 49.5028C47.2034 49.5027 47.2034 49.5024 47.2034 49.5021C47.204 49.5018 47.2045 49.5015 47.2048 49.5012C47.205 49.5009 47.2053 49.5007 47.2053 49.5004C47.2073 49.4987 47.2092 49.4967 47.2112 49.4948C47.2115 49.4943 47.2118 49.4942 47.2121 49.4937C47.2137 49.4917 47.2155 49.4894 47.2182 49.4872C47.2189 49.4866 47.2198 49.486 47.2207 49.4854L34.0552 36.3248C31.7758 34.046 28.7938 32.9074 25.8118 32.9074C25.4103 32.9074 25.0087 32.9281 24.609 32.9695C22.0408 33.2354 19.5386 34.3552 17.5684 36.3249L17.577 36.3305L17.5774 36.3302C19.1438 35.5993 20.8384 35.2337 22.5246 35.2337C23.7872 35.2337 25.0494 35.4367 26.2578 35.8433C27.9007 36.3963 29.4437 37.326 30.7507 38.6347L30.7509 38.6346Z" fill="#ED2939"/>
<path d="M75.454 15.9312H82.4049C84.8213 15.9312 86.5839 16.4998 87.6927 17.6369C88.8014 18.7457 89.3558 20.4656 89.3558 22.7968V24.6305C89.3558 27.7293 88.3323 29.6909 86.2854 30.5153V30.6006C87.4226 30.9417 88.2186 31.6383 88.6735 32.6901C89.1568 33.742 89.3984 35.1493 89.3984 36.9119V42.157C89.3984 43.0099 89.4269 43.7064 89.4837 44.2466C89.5406 44.7583 89.6827 45.27 89.9102 45.7817H85.1341C84.9635 45.2984 84.8498 44.8436 84.7929 44.4171C84.7361 43.9907 84.7076 43.2231 84.7076 42.1144V36.656C84.7076 35.2914 84.4802 34.339 84.0253 33.7989C83.5989 33.2587 82.8455 32.9886 81.7652 32.9886H80.1448V45.7817H75.454V15.9312ZM81.8505 28.7243C82.7887 28.7243 83.4852 28.4826 83.94 27.9993C84.4233 27.516 84.665 26.7058 84.665 25.5686V23.2659C84.665 22.1856 84.466 21.4038 84.068 20.9205C83.6984 20.4372 83.1014 20.1955 82.2769 20.1955H80.1448V28.7243H81.8505ZM92.653 15.9312H105.446V20.1955H97.3438V28.0846H103.783V32.349H97.3438V41.5174H105.446V45.7817H92.653V15.9312ZM108.145 15.9312H112.835V41.5174H120.554V45.7817H108.145V15.9312ZM129.417 46.2082C127.114 46.2082 125.352 45.5543 124.129 44.2466C122.907 42.9388 122.296 41.0909 122.296 38.7029V23.01C122.296 20.622 122.907 18.7741 124.129 17.4664C125.352 16.1586 127.114 15.5047 129.417 15.5047C131.72 15.5047 133.483 16.1586 134.705 17.4664C135.927 18.7741 136.539 20.622 136.539 23.01V38.7029C136.539 41.0909 135.927 42.9388 134.705 44.2466C133.483 45.5543 131.72 46.2082 129.417 46.2082ZM129.417 41.9438C131.038 41.9438 131.848 40.963 131.848 39.0014V22.7115C131.848 20.7499 131.038 19.7691 129.417 19.7691C127.797 19.7691 126.986 20.7499 126.986 22.7115V39.0014C126.986 40.963 127.797 41.9438 129.417 41.9438ZM146.321 46.2082C144.075 46.2082 142.355 45.5685 141.161 44.2892C139.995 43.0099 139.412 41.2047 139.412 38.8735V22.8395C139.412 20.5083 139.995 18.703 141.161 17.4237C142.355 16.1444 144.075 15.5047 146.321 15.5047C148.567 15.5047 150.272 16.1444 151.438 17.4237C152.632 18.703 153.229 20.5083 153.229 22.8395V25.9951H148.794V22.541C148.794 20.6931 148.012 19.7691 146.449 19.7691C144.885 19.7691 144.103 20.6931 144.103 22.541V39.2146C144.103 41.0341 144.885 41.9438 146.449 41.9438C148.012 41.9438 148.794 41.0341 148.794 39.2146V34.6517H153.229V38.8735C153.229 41.2047 152.632 43.0099 151.438 44.2892C150.272 45.5685 148.567 46.2082 146.321 46.2082ZM159.66 15.9312H166.014L170.875 45.7817H166.185L165.332 39.8543V39.9396H160.001L159.148 45.7817H154.799L159.66 15.9312ZM164.777 35.8884L162.688 21.1337H162.603L160.556 35.8884H164.777ZM173.151 15.9312H179.036L183.599 33.7989H183.684V15.9312H187.863V45.7817H183.045L177.416 23.9908H177.33V45.7817H173.151V15.9312ZM195.017 20.1955H190.113V15.9312H204.612V20.1955H199.708V45.7817H195.017V20.1955Z" fill="#405149"/>
<defs>
<linearGradient id="paint0_linear_5_229" x1="28.8087" y1="47.5608" x2="37.0504" y2="39.319" gradientUnits="userSpaceOnUse">
<stop stop-color="#ED2939"/>
<stop offset="1" stop-color="#991F29"/>
</linearGradient>
</defs>
</svg>
