<svg width="100" height="100" viewBox="0 0 100 100" fill="none" xmlns="http://www.w3.org/2000/svg">
<g filter="url(#filter0_b_11_474)">
<rect x="6" y="6" width="88.75" height="88.75" rx="44.375" fill="white" fill-opacity="0.28"/>
</g>
<circle cx="50" cy="50" r="49.5" stroke="white" stroke-miterlimit="2.3662" stroke-linecap="round" stroke-dasharray="7 14 22 8"/>
<g clip-path="url(#clip0_11_474)">
<path d="M64.8378 24C64.4513 24.0012 64.0648 24.2694 64.0339 24.8023V29.6069C64.0339 30.6756 65.637 30.6756 65.637 29.6069V24.8023C65.6097 24.2647 65.2242 23.9988 64.8378 24ZM68.0236 27.2046C67.6305 27.2167 67.2425 27.4933 67.2385 28.0054V33.6091C67.2627 34.6695 68.8162 34.6846 68.84 33.6091V28.0054C68.8158 27.4492 68.4168 27.1936 68.0236 27.2046ZM44.817 29.6053C44.4252 29.6065 44.035 29.8738 44.0193 30.4045V35.2106C44.0193 36.2549 45.5977 36.2955 45.6209 35.2106V30.4045C45.6027 29.8688 45.2087 29.6041 44.817 29.6053ZM56.8285 30.3279C50.6448 30.3279 45.6209 35.3757 45.6209 41.5776C45.6209 47.7795 50.6448 52.8258 56.8285 52.8258C63.0122 52.8258 68.0424 47.7795 68.0424 41.5776C68.0424 35.3757 63.0122 30.3279 56.8285 30.3279ZM56.8285 31.931C62.1434 31.931 66.4409 36.238 66.4409 41.5776C66.4409 46.9172 62.1434 51.2242 56.8285 51.2242C51.5136 51.2242 47.224 46.9172 47.224 41.5776C47.224 36.238 51.5136 31.931 56.8285 31.931ZM41.6139 32.8099C41.2225 32.8116 40.8319 33.0793 40.8163 33.6091V39.2129C40.8577 40.2826 42.3795 40.2888 42.4178 39.2129V33.6091C42.3966 33.0727 42.0053 32.8083 41.6139 32.8099ZM56.8316 34.413C56.4393 34.4107 56.0454 34.6745 56.0277 35.2122V35.9785C54.4589 36.3319 53.2673 37.6986 53.2673 39.3755C53.2673 40.5562 53.8632 41.231 54.5795 41.5807C55.2958 41.9305 56.0582 41.9811 56.7487 42.053C57.4393 42.1251 58.0605 42.2177 58.38 42.3737C58.5776 42.4835 58.7945 42.5898 58.7945 43.1353C58.7945 44.1578 57.9525 45.0112 56.8614 45.0215C55.9454 45.0033 55.2267 44.441 54.922 43.4372C54.5707 42.4284 53.1016 42.8961 53.3924 43.922C53.9077 45.5181 54.9798 46.2535 56.0277 46.5229V47.2267C56.0849 48.3089 57.6136 48.2699 57.6293 47.2267V46.5307C59.2013 46.1785 60.396 44.7958 60.396 43.1353C60.396 41.9703 59.8001 41.2862 59.0838 40.9364C58.3675 40.5866 57.6051 40.5359 56.9145 40.464C56.224 40.392 55.6028 40.2949 55.2833 40.1388C55.0457 40.0228 54.8688 39.8691 54.8688 39.3755C54.8688 38.3343 55.7108 37.5184 56.8019 37.5081C57.7836 37.5463 58.4209 38.062 58.7413 39.0752C59.0833 40.0647 60.5457 39.644 60.2724 38.5951C59.876 37.3412 59.0326 36.3518 57.6293 35.9958V35.2122C57.6142 34.6837 57.2241 34.4153 56.8316 34.413ZM72.0369 42.419C71.6466 42.4221 71.2594 42.6935 71.2439 43.2198V52.7256L70.2101 51.6965C69.4733 50.9594 68.3344 52.028 69.0747 52.8258L71.4816 55.2311C71.794 55.5417 72.2985 55.5417 72.6108 55.2311L75.0163 52.8258C75.7156 52.0571 74.6998 50.9618 73.8808 51.6965L72.847 52.7303V43.2198C72.8198 42.679 72.4271 42.4154 72.0369 42.419ZM42.374 56.0335C41.1319 56.0335 38.9141 56.8709 37.1581 57.7116C36.2397 58.1513 35.48 58.5401 34.9059 58.8502C34.4905 58.1256 33.7064 57.635 32.8195 57.635H26.4071C25.0591 57.635 24 58.725 24.0001 60.042C24.0002 61.1766 23.9998 67.5126 24.0001 71.2479C24.0002 72.5649 25.0679 73.6548 26.4071 73.6548H32.8195C34.1365 73.6548 35.2013 72.6086 35.2171 71.2479L35.2187 71.1102C36.7807 70.8571 38.2698 70.5171 40.0233 70.4501C41.0133 70.4502 42.8652 71.853 44.0679 72.7023C45.7815 73.912 47.6275 75.25 49.6294 75.25C50.2321 75.25 50.8374 75.0518 51.6345 74.7542C56.0154 73.1165 65.2544 67.8889 70.6371 64.7401C71.829 64.081 72.3214 62.6645 71.9102 61.4275C71.8515 61.2508 71.7749 61.0765 71.6787 60.9099C70.9404 59.6311 69.4417 59.3197 67.9845 59.8166L56.7784 63.6969C56.5823 62.8672 56.0547 62.124 55.2629 61.6668C52.1308 59.9875 48.8835 58.2619 45.6802 56.9561C44.6052 56.531 43.4832 56.0753 42.374 56.0335ZM45.0845 58.4389C48.3671 59.8327 51.2426 61.3062 54.4592 63.0557C55.3577 63.5745 55.414 64.6125 55.0504 65.2422C54.6235 65.9816 53.638 66.2792 52.8576 65.8287L48.003 63.026C47.0524 62.3826 46.172 63.9103 47.2053 64.4102L52.0584 67.2113C53.5832 68.0916 55.5542 67.5662 56.4345 66.0414C56.5498 65.8416 56.6464 65.6274 56.7145 65.4158L68.5086 61.3291C69.5387 60.9786 70.1476 61.3382 70.3635 61.8562C70.5796 62.3743 70.4041 63.0512 69.8646 63.3388C63.6012 66.949 55.448 71.5818 51.0731 73.2529C50.3444 73.5247 49.7552 73.6549 49.6295 73.6548C48.4284 73.6548 46.6787 72.5891 44.9891 71.3965C43.8432 70.6253 41.7742 68.8776 40.0234 68.8487C38.7279 68.8518 36.6202 69.226 35.2188 69.4837V60.5112C35.2188 60.5112 36.5557 59.7674 37.8417 59.1599C39.5025 58.3751 41.4419 57.6594 42.3241 57.635C43.0648 57.635 44.291 58.1194 45.0845 58.4389ZM26.4072 59.2365H32.8196C33.3045 59.2365 33.6156 59.6402 33.6156 60.0435C33.6156 64.1818 33.6172 70.4527 33.6172 71.2479C33.6172 71.6834 33.2645 72.0532 32.8196 72.0533C32.8196 72.0533 28.5446 72.0549 26.4071 72.0549C25.9778 72.0549 25.6033 71.7054 25.6032 71.2479C25.603 67.5126 25.6032 60.4213 25.6032 60.042C25.6032 59.5558 25.9931 59.2365 26.4072 59.2365ZM28.0088 68.844C27.5665 68.844 27.208 69.2026 27.208 69.6448C27.208 70.0871 27.5665 70.4455 28.0088 70.4455C28.451 70.4455 28.8095 70.0871 28.8095 69.6448C28.8095 69.2026 28.451 68.844 28.0088 68.844Z" fill="#73827B"/>
</g>
<defs>
<filter id="filter0_b_11_474" x="1" y="1" width="98.75" height="98.75" filterUnits="userSpaceOnUse" color-interpolation-filters="sRGB">
<feFlood flood-opacity="0" result="BackgroundImageFix"/>
<feGaussianBlur in="BackgroundImageFix" stdDeviation="2.5"/>
<feComposite in2="SourceAlpha" operator="in" result="effect1_backgroundBlur_11_474"/>
<feBlend mode="normal" in="SourceGraphic" in2="effect1_backgroundBlur_11_474" result="shape"/>
</filter>
<clipPath id="clip0_11_474">
<rect width="51.25" height="51.25" fill="white" transform="translate(24 24)"/>
</clipPath>
</defs>
</svg>
