<svg width="44" height="80" viewBox="0 0 44 80" fill="none" xmlns="http://www.w3.org/2000/svg">
<path d="M37.9659 0H6.03317C3.25397 0 0.991211 2.2629 0.991211 5.04196V74.9579C0.991211 77.7371 3.25411 79.9999 6.03317 79.9999H37.9659C40.7451 79.9999 43.0078 77.737 43.0078 74.9579V5.04196C43.0078 2.2629 40.7464 0 37.9659 0ZM37.9659 77.9832H6.03317C4.52996 77.9832 3.28758 76.8766 3.05642 75.4353C3.7811 76.8471 5.23594 77.8232 6.92869 77.8232H37.0704C38.7633 77.8232 40.2181 76.8457 40.9426 75.4353C40.7113 76.8766 39.469 77.9832 37.9659 77.9832ZM18.7564 3.73504C18.8048 3.86678 18.9312 3.95283 19.0697 3.95283H24.5609C24.7088 3.95283 24.8391 3.8561 24.8821 3.71479L25.1067 2.97802C25.1202 2.93232 25.0985 2.89197 25.0932 2.84627H37.0691C39.1087 2.84627 40.7666 4.50415 40.7666 6.54377V73.4534C40.7666 75.493 39.1087 77.1509 37.0691 77.1509H6.92855C4.88893 77.1509 3.23105 75.493 3.23105 73.4534V6.54517C3.23105 4.50555 4.88893 2.84768 6.92855 2.84768H18.4821C18.4767 2.89872 18.4579 2.94723 18.478 2.99827L18.7564 3.73504ZM19.1383 2.84768H24.4439L24.3107 3.2806H19.3011L19.1383 2.84768ZM37.0704 2.17544H6.92855C5.2358 2.17544 3.78096 3.15293 3.05628 4.56334C3.28757 3.12326 4.52982 2.01543 6.03303 2.01543H37.9657C39.4688 2.01543 40.7112 3.122 40.9425 4.56334C40.2181 3.15293 38.7633 2.17544 37.0704 2.17544Z" fill="white"/>
<path d="M4.52051 8.57159V66.8908C4.52051 67.1691 4.74632 67.395 5.02472 67.395H38.5548C38.8331 67.395 39.0591 67.1692 39.0591 66.8908V8.57159C39.0591 8.29334 38.8332 8.06738 38.5548 8.06738H5.02472C4.74632 8.06738 4.52051 8.29319 4.52051 8.57159ZM5.52893 9.0758H38.0506V66.3868H5.52893V9.0758Z" fill="white"/>
<path d="M22.9247 70.3369H20.9912C20.0635 70.3369 19.3105 71.0911 19.3105 72.0176V72.6064C19.3105 73.5327 20.0635 74.2871 20.9912 74.2871H22.9247C23.8511 74.2871 24.6053 73.5327 24.6053 72.6064V72.0176C24.6055 71.0899 23.8511 70.3369 22.9247 70.3369ZM23.9331 72.6052C23.9331 73.1604 23.4799 73.6136 22.9247 73.6136H20.9912C20.436 73.6136 19.9828 73.1604 19.9828 72.6052V72.0163C19.9828 71.4611 20.436 71.0079 20.9912 71.0079H22.9247C23.4799 71.0079 23.9331 71.4611 23.9331 72.0163V72.6052Z" fill="white"/>
<path d="M30.0387 5.99547C30.5801 5.99547 31.0189 5.55664 31.0189 5.01531C31.0189 4.47399 30.5801 4.03516 30.0387 4.03516C29.4974 4.03516 29.0586 4.47399 29.0586 5.01531C29.0586 5.55664 29.4974 5.99547 30.0387 5.99547Z" fill="white"/>
<path d="M32.7825 71.8412H32.1089V71.5884L31.3828 72.0065L32.1089 72.4261V72.1786H32.7825C33.6187 72.1786 33.959 72.2163 33.959 72.5981C33.959 72.9988 33.791 73.0175 33.2585 73.0175H32.39C32.2972 73.0175 32.2219 73.0927 32.2219 73.1855C32.2219 73.2783 32.2972 73.3535 32.39 73.3535H33.2585C33.7211 73.3535 34.2952 73.3535 34.2952 72.5979C34.2952 71.8423 33.5246 71.8412 32.7825 71.8412Z" fill="white"/>
<path d="M11.8324 71.2188H10.1934C10.1006 71.2188 10.0254 71.2941 10.0254 71.3868V72.984C10.0254 73.0768 10.1006 73.1521 10.1934 73.1521H11.8324C11.9252 73.1521 12.0005 73.0768 12.0005 72.984V71.3868C12.0005 71.2941 11.9252 71.2188 11.8324 71.2188ZM11.6644 72.8146H10.3616V72.1424H10.9504V71.5535H11.6644V72.8146Z" fill="white"/>
</svg>
