<svg width="90" height="90" viewBox="0 0 90 90" fill="none" xmlns="http://www.w3.org/2000/svg">
<path d="M76.8199 13.1801C68.3204 4.68093 57.0199 0 45 0C32.9801 0 21.6796 4.68093 13.1801 13.1801C4.68093 21.6796 0 32.9801 0 45C0 57.0199 4.68093 68.3204 13.1801 76.8199C21.6796 85.3191 32.9801 90 45 90C57.0199 90 68.3204 85.3191 76.8199 76.8199C85.3191 68.3204 90 57.0199 90 45C90 32.9801 85.3191 21.6796 76.8199 13.1801ZM45 84.433C23.2566 84.433 5.56701 66.7434 5.56701 45C5.56701 23.2566 23.2566 5.56701 45 5.56701C66.7434 5.56701 84.433 23.2566 84.433 45C84.433 66.7434 66.7434 84.433 45 84.433Z" fill="white"/>
<path d="M33.5996 62.4572L63.824 45L33.5996 27.5428V62.4572Z" fill="white"/>
</svg>
