<svg width="60" height="60" viewBox="0 0 60 60" fill="none" xmlns="http://www.w3.org/2000/svg">
<path d="M30 0C13.4573 0 0 13.4573 0 30C0 35.6435 1.56808 41.1219 4.54269 45.8792C3.35769 50.0308 1.21731 57.8838 1.19423 57.9658C1.08346 58.3719 1.20231 58.8058 1.50577 59.0977C1.80923 59.3896 2.24769 59.4935 2.64692 59.3712L14.5385 55.7135C19.1965 58.5196 24.5308 60 30 60C46.5427 60 60 46.5427 60 30C60 13.4573 46.5427 0 30 0ZM30 57.6923C24.7858 57.6923 19.7065 56.235 15.3104 53.4796C15.1246 53.3631 14.9112 53.3042 14.6977 53.3042C14.5835 53.3042 14.4692 53.3215 14.3585 53.355L3.975 56.5512C4.73769 53.7669 6.10846 48.7869 6.90346 46.0165C6.99577 45.6958 6.94385 45.3496 6.76269 45.0692C3.84808 40.5842 2.30769 35.3735 2.30769 30C2.30769 14.7312 14.7312 2.30769 30 2.30769C45.2688 2.30769 57.6923 14.7312 57.6923 30C57.6923 45.2688 45.2688 57.6923 30 57.6923Z" fill="white"/>
<path d="M49.5982 37.0682C47.4682 35.8855 45.6544 34.6994 44.3309 33.834C43.3201 33.174 42.5898 32.6974 42.0544 32.4286C40.5578 31.6821 39.4236 32.2094 38.9921 32.6455C38.9378 32.6998 38.8894 32.7586 38.8478 32.8209C37.2936 35.1528 35.264 37.3832 34.6698 37.5032C33.9832 37.3959 30.7698 35.5694 27.5759 32.9098C24.3151 30.1924 22.2636 27.5905 21.9625 25.8182C24.0544 23.6651 24.8078 22.3105 24.8078 20.769C24.8078 19.1801 21.1017 12.5467 20.4313 11.8763C19.7586 11.2048 18.2436 11.0998 15.9278 11.5613C15.7051 11.6063 15.4998 11.7159 15.3382 11.8763C15.0578 12.1567 8.49707 18.8455 11.6148 26.9524C15.0371 35.8498 23.8213 46.1917 35.0205 47.8717C36.2932 48.0621 37.4863 48.1567 38.6032 48.1567C45.1917 48.1567 49.0801 44.8417 50.1751 38.2659C50.2571 37.7848 50.0252 37.3048 49.5982 37.0682ZM35.3632 45.5894C23.5202 43.8136 16.0605 32.0801 13.769 26.124C11.4959 20.2163 15.6878 14.949 16.7402 13.7582C17.5963 13.6128 18.4975 13.5517 18.8736 13.6105C19.6594 14.7032 22.3801 19.8436 22.5001 20.769C22.5001 21.3748 22.3028 22.2182 19.9536 24.5686C19.7367 24.7844 19.6155 25.0774 19.6155 25.3844C19.6155 31.4259 32.3586 39.8074 34.6155 39.8074C36.5782 39.8074 39.1375 36.5086 40.5948 34.359C40.679 34.3624 40.8209 34.3913 41.0228 34.4928C41.4382 34.7017 42.1582 35.1713 43.0686 35.7667C44.2709 36.5524 45.8678 37.5955 47.7532 38.6767C46.8971 42.7959 44.504 46.9625 35.3632 45.5894Z" fill="white"/>
</svg>
