<svg width="35" height="60" viewBox="0 0 35 60" fill="none" xmlns="http://www.w3.org/2000/svg">
<path d="M18.8569 24.2762C15.9413 21.5754 12.6574 17.5243 12.5346 11.4476C14.0078 16.3887 19.0103 23.4169 32.5142 32.6547C32.5142 32.6547 17.6906 11.9079 22.7239 0.276212C22.7239 0.276212 19.9617 -1.13555 14.4374 2.39386V2.36317C14.4374 2.36317 5.23028 8.53197 6.76481 15.2839C7.07171 16.6036 6.85688 18.2302 3.63437 19.7647C2.98987 20.0716 1.85432 20.4399 2.16123 22.1893C2.16123 22.1893 2.46813 23.4476 3.08194 23.9079C3.11263 23.9386 3.14332 23.9386 3.17401 23.9693C3.97197 24.7366 2.59089 24.5217 2.16123 24.6445C1.42465 24.89 1.39396 26.3632 2.59089 27.6522C2.59089 27.6522 0.688079 29.555 1.76225 31.2123C1.76225 31.2123 2.03846 31.5192 3.14332 31.3657C3.14332 31.3657 2.28399 37.3504 6.91826 37.2276C9.61903 37.1356 15.5423 34.8951 17.7213 38.3939C17.7213 38.3939 25.0564 47.4169 16.1561 59.9386C16.1561 59.9386 26.4067 56.133 27.4809 44.5013C27.4502 44.5627 30.7341 35.2941 18.8569 24.2762Z" stroke="#FF6326" stroke-miterlimit="10"/>
</svg>
