<svg width="73" height="40" viewBox="0 0 73 40" fill="none" xmlns="http://www.w3.org/2000/svg">
<path d="M70.5301 11.0393C68.5794 10.0183 63.2457 11.7403 61.8589 12.6394C61.4017 11.8317 60.8836 10.9479 60.335 10.0335C57.47 5.38554 55.047 2.70343 52.9135 1.81956C52.822 1.78908 52.7458 1.7586 52.6544 1.72812C52.4715 1.6824 48.0369 0.676613 36.4856 0.676613C24.9342 0.676613 20.4996 1.6824 20.3167 1.72812C20.2253 1.74336 20.1338 1.77384 20.0576 1.81956C17.9241 2.70343 15.5011 5.40078 12.6361 10.0335C12.0723 10.9479 11.5541 11.8317 11.1122 12.6394C9.72543 11.7403 4.39169 10.0183 2.44106 11.0393C0.42948 12.0908 1.23716 15.413 2.44106 16.3273C3.20302 16.8912 5.26032 17.0588 7.43954 16.9217C6.95188 17.5769 6.55566 18.3237 6.29659 19.1161C9.74067 19.7562 17.8175 19.7257 16.6136 22.3468C14.8458 26.1871 9.4054 25.6538 6.05277 23.947L6.67758 34.7516C6.67758 37.2813 8.71964 39.3234 11.2494 39.3234H13.9924C16.5221 39.3234 18.5642 37.2813 18.5642 34.7516L18.4728 33.7763H54.5136L54.4222 34.7516C54.4222 37.2813 56.4642 39.3234 58.9939 39.3234H61.737C64.2667 39.3234 66.3088 37.2813 66.3088 34.7516L66.9336 23.947C63.581 25.6538 58.1405 26.1871 56.3728 22.3468C55.1689 19.7257 63.2457 19.7562 66.6898 19.1161C66.4307 18.3237 66.0345 17.5769 65.5468 16.9217C67.726 17.074 69.7986 16.8912 70.5453 16.3273C71.7492 15.4282 72.5569 12.1061 70.5301 11.0393ZM45.2634 28.7016H27.6773L25.8486 22.0268H47.1073L45.2634 28.7016ZM14.2667 13.8433C16.4612 10.0183 19.25 5.91892 21.2158 4.97408C22.0387 4.80645 26.5038 4.02925 36.4856 4.02925C46.4673 4.02925 50.9476 4.80645 51.7553 4.97408C53.7059 5.91892 56.5099 10.003 58.6892 13.8433H14.2667Z" stroke="#FF6326" stroke-miterlimit="10"/>
</svg>
