<svg width="32" height="60" viewBox="0 0 32 60" fill="none" xmlns="http://www.w3.org/2000/svg">
<path d="M27.9751 3.05176e-05H4.02561C1.94121 3.05176e-05 0.244141 1.69721 0.244141 3.7815V56.2185C0.244141 58.3029 1.94132 59.9999 4.02561 59.9999H27.9751C30.0595 59.9999 31.7566 58.3027 31.7566 56.2185V3.7815C31.7566 1.69721 30.0605 3.05176e-05 27.9751 3.05176e-05ZM27.9751 58.4874H4.02561C2.8982 58.4874 1.96641 57.6575 1.79305 56.5765C2.33656 57.6353 3.42769 58.3674 4.69725 58.3674H27.3035C28.5732 58.3674 29.6643 57.6343 30.2077 56.5765C30.0342 57.6575 29.1024 58.4874 27.9751 58.4874ZM13.568 2.80131C13.6043 2.90012 13.6991 2.96466 13.803 2.96466H17.9214C18.0323 2.96466 18.1301 2.8921 18.1623 2.78612L18.3308 2.23354C18.3409 2.19927 18.3246 2.16901 18.3206 2.13473H27.3026C28.8323 2.13473 30.0757 3.37814 30.0757 4.90786V55.0901C30.0757 56.6198 28.8323 57.8632 27.3026 57.8632H4.69714C3.16743 57.8632 1.92402 56.6198 1.92402 55.0901V4.90891C1.92402 3.3792 3.16743 2.13579 4.69714 2.13579H13.3623C13.3583 2.17407 13.3442 2.21045 13.3592 2.24873L13.568 2.80131ZM13.8544 2.13579H17.8336L17.7338 2.46048H13.9766L13.8544 2.13579ZM27.3035 1.63161H4.69714C3.42758 1.63161 2.33645 2.36473 1.79294 3.42254C1.96641 2.34248 2.8981 1.51161 4.02551 1.51161H27.975C29.1023 1.51161 30.0341 2.34153 30.2076 3.42254C29.6643 2.36473 28.5732 1.63161 27.3035 1.63161Z" fill="#FF6326"/>
<path d="M2.8916 6.4286V50.168C2.8916 50.3767 3.06096 50.5462 3.26976 50.5462H28.4174C28.626 50.5462 28.7955 50.3768 28.7955 50.168V6.4286C28.7955 6.21991 28.6262 6.05045 28.4174 6.05045H3.26976C3.06096 6.05045 2.8916 6.2198 2.8916 6.4286ZM3.64792 6.80676H28.0392V49.79H3.64792V6.80676Z" fill="#FF6326"/>
<path d="M16.694 52.7526H15.2439C14.5481 52.7526 13.9834 53.3183 13.9834 54.0131V54.4547C13.9834 55.1495 14.5481 55.7152 15.2439 55.7152H16.694C17.3888 55.7152 17.9545 55.1495 17.9545 54.4547V54.0131C17.9546 53.3173 17.3888 52.7526 16.694 52.7526ZM17.4503 54.4538C17.4503 54.8702 17.1104 55.2101 16.694 55.2101H15.2439C14.8275 55.2101 14.4876 54.8702 14.4876 54.4538V54.0122C14.4876 53.5957 14.8275 53.2558 15.2439 53.2558H16.694C17.1104 53.2558 17.4503 53.5957 17.4503 54.0122V54.4538Z" fill="#FF6326"/>
<path d="M22.0291 4.49648C22.4351 4.49648 22.7642 4.16735 22.7642 3.76136C22.7642 3.35536 22.4351 3.02624 22.0291 3.02624C21.6231 3.02624 21.2939 3.35536 21.2939 3.76136C21.2939 4.16735 21.6231 4.49648 22.0291 4.49648Z" fill="#FF6326"/>
<path d="M24.0879 53.881H23.5827V53.6914L23.0381 54.005L23.5827 54.3197V54.1341H24.0879C24.715 54.1341 24.9702 54.1623 24.9702 54.4486C24.9702 54.7492 24.8442 54.7632 24.4448 54.7632H23.7935C23.7239 54.7632 23.6674 54.8196 23.6674 54.8892C23.6674 54.9588 23.7239 55.0152 23.7935 55.0152H24.4448C24.7918 55.0152 25.2224 55.0152 25.2224 54.4485C25.2224 53.8818 24.6445 53.881 24.0879 53.881Z" fill="#FF6326"/>
<path d="M8.37483 53.4141H7.14555C7.07595 53.4141 7.01953 53.4706 7.01953 53.5401V54.7381C7.01953 54.8077 7.07595 54.8641 7.14555 54.8641H8.37483C8.44442 54.8641 8.50084 54.8077 8.50084 54.7381V53.5401C8.50084 53.4706 8.44442 53.4141 8.37483 53.4141ZM8.24881 54.611H7.27167V54.1068H7.71331V53.6652H8.24881V54.611Z" fill="#FF6326"/>
</svg>
